<mxfile host="Electron" agent="Mozilla/5.0 (X11; Linux x86_64) AppleWebKit/537.36 (KHTML, like Gecko) draw.io/27.0.9 Chrome/134.0.6998.205 Electron/35.4.0 Safari/537.36" version="27.0.9">
  <diagram name="ページ1" id="su6zvyK42K4Uvur7EuTy">
    <mxGraphModel dx="1360" dy="-137" grid="1" gridSize="10" guides="1" tooltips="1" connect="1" arrows="1" fold="1" page="1" pageScale="1" pageWidth="850" pageHeight="1100" math="0" shadow="0">
      <root>
        <mxCell id="0" />
        <mxCell id="1" parent="0" />
        <mxCell id="mhfjtfYsQsaltl2Lk63X-22" value="" style="rounded=1;whiteSpace=wrap;html=1;" parent="1" vertex="1">
          <mxGeometry x="350" y="1370" width="780" height="840" as="geometry" />
        </mxCell>
        <mxCell id="mhfjtfYsQsaltl2Lk63X-20" value="" style="rounded=1;whiteSpace=wrap;html=1;fillColor=#6DB7C5;strokeColor=#FEFEFE;" parent="1" vertex="1">
          <mxGeometry x="1180" y="1467" width="250" height="517" as="geometry" />
        </mxCell>
        <mxCell id="mhfjtfYsQsaltl2Lk63X-1" value="&lt;h1 style=&quot;margin-top: 0px;&quot;&gt;&lt;font style=&quot;font-size: 26px;&quot;&gt;Clipboard-to-Anki&lt;/font&gt;&lt;/h1&gt;&lt;p&gt;&lt;font style=&quot;font-size: 15px;&quot;&gt;&lt;font style=&quot;&quot;&gt;Key function: commandline program&amp;nbsp;&lt;/font&gt;&lt;span style=&quot;background-color: transparent; color: light-dark(rgb(0, 0, 0), rgb(255, 255, 255));&quot;&gt;read local clipboard and find coresponse furigana and translation. use just run the command line then copy kanji word. After closing program it will generate CSV file that user can import as flashcard in Anki app.&lt;/span&gt;&lt;/font&gt;&lt;/p&gt;" style="text;html=1;whiteSpace=wrap;overflow=hidden;rounded=0;" parent="1" vertex="1">
          <mxGeometry x="425" y="1400" width="600" height="140" as="geometry" />
        </mxCell>
        <mxCell id="mhfjtfYsQsaltl2Lk63X-80" style="edgeStyle=orthogonalEdgeStyle;rounded=0;orthogonalLoop=1;jettySize=auto;html=1;entryX=1;entryY=0.5;entryDx=0;entryDy=0;" parent="1" source="mhfjtfYsQsaltl2Lk63X-2" target="mhfjtfYsQsaltl2Lk63X-71" edge="1">
          <mxGeometry relative="1" as="geometry">
            <Array as="points">
              <mxPoint x="750" y="1958" />
              <mxPoint x="750" y="1664" />
            </Array>
          </mxGeometry>
        </mxCell>
        <mxCell id="mhfjtfYsQsaltl2Lk63X-2" value="Deck" style="swimlane;fontStyle=1;align=center;verticalAlign=top;childLayout=stackLayout;horizontal=1;startSize=26;horizontalStack=0;resizeParent=1;resizeParentMax=0;resizeLast=0;collapsible=1;marginBottom=0;whiteSpace=wrap;html=1;fontSize=16;spacing=0;" parent="1" vertex="1">
          <mxGeometry x="820" y="1902" width="235" height="112" as="geometry" />
        </mxCell>
        <mxCell id="mhfjtfYsQsaltl2Lk63X-3" value="- font_list: str[]" style="text;strokeColor=none;fillColor=none;align=left;verticalAlign=top;spacingLeft=4;spacingRight=4;overflow=hidden;rotatable=0;points=[[0,0.5],[1,0.5]];portConstraint=eastwest;whiteSpace=wrap;html=1;fontSize=14;" parent="mhfjtfYsQsaltl2Lk63X-2" vertex="1">
          <mxGeometry y="26" width="235" height="26" as="geometry" />
        </mxCell>
        <mxCell id="mhfjtfYsQsaltl2Lk63X-49" value="- back_list: str[]" style="text;strokeColor=none;fillColor=none;align=left;verticalAlign=top;spacingLeft=4;spacingRight=4;overflow=hidden;rotatable=0;points=[[0,0.5],[1,0.5]];portConstraint=eastwest;whiteSpace=wrap;html=1;fontSize=14;" parent="mhfjtfYsQsaltl2Lk63X-2" vertex="1">
          <mxGeometry y="52" width="235" height="26" as="geometry" />
        </mxCell>
        <mxCell id="mhfjtfYsQsaltl2Lk63X-4" value="" style="line;strokeWidth=1;fillColor=none;align=left;verticalAlign=middle;spacingTop=-1;spacingLeft=3;spacingRight=3;rotatable=0;labelPosition=right;points=[];portConstraint=eastwest;strokeColor=inherit;" parent="mhfjtfYsQsaltl2Lk63X-2" vertex="1">
          <mxGeometry y="78" width="235" height="8" as="geometry" />
        </mxCell>
        <mxCell id="mhfjtfYsQsaltl2Lk63X-5" value="+ add_card(font, back): void" style="text;strokeColor=none;fillColor=none;align=left;verticalAlign=top;spacingLeft=4;spacingRight=4;overflow=hidden;rotatable=0;points=[[0,0.5],[1,0.5]];portConstraint=eastwest;whiteSpace=wrap;html=1;fontSize=14;" parent="mhfjtfYsQsaltl2Lk63X-2" vertex="1">
          <mxGeometry y="86" width="235" height="26" as="geometry" />
        </mxCell>
        <mxCell id="mhfjtfYsQsaltl2Lk63X-74" style="edgeStyle=orthogonalEdgeStyle;rounded=0;orthogonalLoop=1;jettySize=auto;html=1;" parent="1" source="mhfjtfYsQsaltl2Lk63X-6" target="mhfjtfYsQsaltl2Lk63X-69" edge="1">
          <mxGeometry relative="1" as="geometry">
            <Array as="points">
              <mxPoint x="780" y="1815" />
              <mxPoint x="780" y="1638" />
            </Array>
          </mxGeometry>
        </mxCell>
        <mxCell id="mhfjtfYsQsaltl2Lk63X-6" value="FileHandler" style="swimlane;fontStyle=1;align=center;verticalAlign=top;childLayout=stackLayout;horizontal=1;startSize=26;horizontalStack=0;resizeParent=1;resizeParentMax=0;resizeLast=0;collapsible=1;marginBottom=0;whiteSpace=wrap;html=1;fontSize=16;spacing=0;" parent="1" vertex="1">
          <mxGeometry x="820" y="1759" width="235" height="112" as="geometry" />
        </mxCell>
        <mxCell id="mhfjtfYsQsaltl2Lk63X-7" value="- deck: Deck" style="text;strokeColor=none;fillColor=none;align=left;verticalAlign=top;spacingLeft=4;spacingRight=4;overflow=hidden;rotatable=0;points=[[0,0.5],[1,0.5]];portConstraint=eastwest;whiteSpace=wrap;html=1;fontSize=14;" parent="mhfjtfYsQsaltl2Lk63X-6" vertex="1">
          <mxGeometry y="26" width="235" height="26" as="geometry" />
        </mxCell>
        <mxCell id="mhfjtfYsQsaltl2Lk63X-8" value="" style="line;strokeWidth=1;fillColor=none;align=left;verticalAlign=middle;spacingTop=-1;spacingLeft=3;spacingRight=3;rotatable=0;labelPosition=right;points=[];portConstraint=eastwest;strokeColor=inherit;" parent="mhfjtfYsQsaltl2Lk63X-6" vertex="1">
          <mxGeometry y="52" width="235" height="8" as="geometry" />
        </mxCell>
        <mxCell id="mhfjtfYsQsaltl2Lk63X-9" value="+ export_csv(str, str, str[ ]): void" style="text;strokeColor=none;fillColor=none;align=left;verticalAlign=top;spacingLeft=4;spacingRight=4;overflow=hidden;rotatable=0;points=[[0,0.5],[1,0.5]];portConstraint=eastwest;whiteSpace=wrap;html=1;fontSize=14;" parent="mhfjtfYsQsaltl2Lk63X-6" vertex="1">
          <mxGeometry y="60" width="235" height="26" as="geometry" />
        </mxCell>
        <mxCell id="mhfjtfYsQsaltl2Lk63X-68" value="+ bypass_export_csv(str [ ]): void" style="text;strokeColor=none;fillColor=none;align=left;verticalAlign=top;spacingLeft=4;spacingRight=4;overflow=hidden;rotatable=0;points=[[0,0.5],[1,0.5]];portConstraint=eastwest;whiteSpace=wrap;html=1;fontSize=14;" parent="mhfjtfYsQsaltl2Lk63X-6" vertex="1">
          <mxGeometry y="86" width="235" height="26" as="geometry" />
        </mxCell>
        <mxCell id="mhfjtfYsQsaltl2Lk63X-10" value="ClipboardListener" style="swimlane;fontStyle=1;align=center;verticalAlign=top;childLayout=stackLayout;horizontal=1;startSize=26;horizontalStack=0;resizeParent=1;resizeParentMax=0;resizeLast=0;collapsible=1;marginBottom=0;whiteSpace=wrap;html=1;fontSize=16;spacing=0;" parent="1" vertex="1">
          <mxGeometry x="425" y="1573" width="260" height="420" as="geometry" />
        </mxCell>
        <mxCell id="mhfjtfYsQsaltl2Lk63X-70" value="o languageEngine: LanguageEngine" style="text;strokeColor=none;fillColor=none;align=left;verticalAlign=top;spacingLeft=4;spacingRight=4;overflow=hidden;rotatable=0;points=[[0,0.5],[1,0.5]];portConstraint=eastwest;whiteSpace=wrap;html=1;fontSize=14;" parent="mhfjtfYsQsaltl2Lk63X-10" vertex="1">
          <mxGeometry y="26" width="260" height="26" as="geometry" />
        </mxCell>
        <mxCell id="mhfjtfYsQsaltl2Lk63X-77" style="edgeStyle=orthogonalEdgeStyle;rounded=0;orthogonalLoop=1;jettySize=auto;html=1;exitX=0;exitY=0.5;exitDx=0;exitDy=0;entryX=0;entryY=0.5;entryDx=0;entryDy=0;dashed=1;startArrow=block;startFill=0;endArrow=none;" parent="mhfjtfYsQsaltl2Lk63X-10" source="mhfjtfYsQsaltl2Lk63X-69" target="mhfjtfYsQsaltl2Lk63X-71" edge="1">
          <mxGeometry relative="1" as="geometry">
            <Array as="points">
              <mxPoint x="-35" y="65" />
              <mxPoint x="-35" y="91" />
            </Array>
          </mxGeometry>
        </mxCell>
        <mxCell id="mhfjtfYsQsaltl2Lk63X-69" value="o fileHanlder: FIelHandler" style="text;strokeColor=none;fillColor=none;align=left;verticalAlign=top;spacingLeft=4;spacingRight=4;overflow=hidden;rotatable=0;points=[[0,0.5],[1,0.5]];portConstraint=eastwest;whiteSpace=wrap;html=1;fontSize=14;" parent="mhfjtfYsQsaltl2Lk63X-10" vertex="1">
          <mxGeometry y="52" width="260" height="26" as="geometry" />
        </mxCell>
        <mxCell id="mhfjtfYsQsaltl2Lk63X-71" value="o deck: Deck" style="text;strokeColor=none;fillColor=none;align=left;verticalAlign=top;spacingLeft=4;spacingRight=4;overflow=hidden;rotatable=0;points=[[0,0.5],[1,0.5]];portConstraint=eastwest;whiteSpace=wrap;html=1;fontSize=14;" parent="mhfjtfYsQsaltl2Lk63X-10" vertex="1">
          <mxGeometry y="78" width="260" height="26" as="geometry" />
        </mxCell>
        <mxCell id="mhfjtfYsQsaltl2Lk63X-51" value="- current_item; str" style="text;strokeColor=none;fillColor=none;align=left;verticalAlign=top;spacingLeft=4;spacingRight=4;overflow=hidden;rotatable=0;points=[[0,0.5],[1,0.5]];portConstraint=eastwest;whiteSpace=wrap;html=1;fontSize=14;" parent="mhfjtfYsQsaltl2Lk63X-10" vertex="1">
          <mxGeometry y="104" width="260" height="26" as="geometry" />
        </mxCell>
        <mxCell id="mhfjtfYsQsaltl2Lk63X-52" value="- last_item: str" style="text;strokeColor=none;fillColor=none;align=left;verticalAlign=top;spacingLeft=4;spacingRight=4;overflow=hidden;rotatable=0;points=[[0,0.5],[1,0.5]];portConstraint=eastwest;whiteSpace=wrap;html=1;fontSize=14;" parent="mhfjtfYsQsaltl2Lk63X-10" vertex="1">
          <mxGeometry y="130" width="260" height="26" as="geometry" />
        </mxCell>
        <mxCell id="mhfjtfYsQsaltl2Lk63X-53" value="- tags: str" style="text;strokeColor=none;fillColor=none;align=left;verticalAlign=top;spacingLeft=4;spacingRight=4;overflow=hidden;rotatable=0;points=[[0,0.5],[1,0.5]];portConstraint=eastwest;whiteSpace=wrap;html=1;fontSize=14;" parent="mhfjtfYsQsaltl2Lk63X-10" vertex="1">
          <mxGeometry y="156" width="260" height="26" as="geometry" />
        </mxCell>
        <mxCell id="mhfjtfYsQsaltl2Lk63X-54" value="- saving_item: str" style="text;strokeColor=none;fillColor=none;align=left;verticalAlign=top;spacingLeft=4;spacingRight=4;overflow=hidden;rotatable=0;points=[[0,0.5],[1,0.5]];portConstraint=eastwest;whiteSpace=wrap;html=1;fontSize=14;" parent="mhfjtfYsQsaltl2Lk63X-10" vertex="1">
          <mxGeometry y="182" width="260" height="26" as="geometry" />
        </mxCell>
        <mxCell id="mhfjtfYsQsaltl2Lk63X-56" value="- first_item_flag: bool" style="text;strokeColor=none;fillColor=none;align=left;verticalAlign=top;spacingLeft=4;spacingRight=4;overflow=hidden;rotatable=0;points=[[0,0.5],[1,0.5]];portConstraint=eastwest;whiteSpace=wrap;html=1;fontSize=14;" parent="mhfjtfYsQsaltl2Lk63X-10" vertex="1">
          <mxGeometry y="208" width="260" height="26" as="geometry" />
        </mxCell>
        <mxCell id="mhfjtfYsQsaltl2Lk63X-12" value="" style="line;strokeWidth=1;fillColor=none;align=left;verticalAlign=middle;spacingTop=-1;spacingLeft=3;spacingRight=3;rotatable=0;labelPosition=right;points=[];portConstraint=eastwest;strokeColor=inherit;" parent="mhfjtfYsQsaltl2Lk63X-10" vertex="1">
          <mxGeometry y="234" width="260" height="8" as="geometry" />
        </mxCell>
        <mxCell id="mhfjtfYsQsaltl2Lk63X-13" value="+ detect_new_item(type): void" style="text;strokeColor=none;fillColor=none;align=left;verticalAlign=top;spacingLeft=4;spacingRight=4;overflow=hidden;rotatable=0;points=[[0,0.5],[1,0.5]];portConstraint=eastwest;whiteSpace=wrap;html=1;fontSize=14;" parent="mhfjtfYsQsaltl2Lk63X-10" vertex="1">
          <mxGeometry y="242" width="260" height="26" as="geometry" />
        </mxCell>
        <mxCell id="mhfjtfYsQsaltl2Lk63X-57" value="+ update_item(type): void" style="text;strokeColor=none;fillColor=none;align=left;verticalAlign=top;spacingLeft=4;spacingRight=4;overflow=hidden;rotatable=0;points=[[0,0.5],[1,0.5]];portConstraint=eastwest;whiteSpace=wrap;html=1;fontSize=14;" parent="mhfjtfYsQsaltl2Lk63X-10" vertex="1">
          <mxGeometry y="268" width="260" height="26" as="geometry" />
        </mxCell>
        <mxCell id="mhfjtfYsQsaltl2Lk63X-58" value="+ clean_item(type): void" style="text;strokeColor=none;fillColor=none;align=left;verticalAlign=top;spacingLeft=4;spacingRight=4;overflow=hidden;rotatable=0;points=[[0,0.5],[1,0.5]];portConstraint=eastwest;whiteSpace=wrap;html=1;fontSize=14;" parent="mhfjtfYsQsaltl2Lk63X-10" vertex="1">
          <mxGeometry y="294" width="260" height="26" as="geometry" />
        </mxCell>
        <mxCell id="mhfjtfYsQsaltl2Lk63X-59" value="+ listen(type): void" style="text;strokeColor=none;fillColor=none;align=left;verticalAlign=top;spacingLeft=4;spacingRight=4;overflow=hidden;rotatable=0;points=[[0,0.5],[1,0.5]];portConstraint=eastwest;whiteSpace=wrap;html=1;fontSize=14;" parent="mhfjtfYsQsaltl2Lk63X-10" vertex="1">
          <mxGeometry y="320" width="260" height="100" as="geometry" />
        </mxCell>
        <mxCell id="mhfjtfYsQsaltl2Lk63X-76" style="edgeStyle=orthogonalEdgeStyle;rounded=0;orthogonalLoop=1;jettySize=auto;html=1;" parent="1" source="mhfjtfYsQsaltl2Lk63X-14" target="mhfjtfYsQsaltl2Lk63X-70" edge="1">
          <mxGeometry relative="1" as="geometry" />
        </mxCell>
        <mxCell id="mhfjtfYsQsaltl2Lk63X-14" value="LanguageEngine" style="swimlane;fontStyle=1;align=center;verticalAlign=top;childLayout=stackLayout;horizontal=1;startSize=26;horizontalStack=0;resizeParent=1;resizeParentMax=0;resizeLast=0;collapsible=1;marginBottom=0;whiteSpace=wrap;html=1;fontSize=16;spacing=0;" parent="1" vertex="1">
          <mxGeometry x="820" y="1530" width="225" height="164" as="geometry" />
        </mxCell>
        <mxCell id="mhfjtfYsQsaltl2Lk63X-15" value="- furigana_mode: type" style="text;strokeColor=none;fillColor=none;align=left;verticalAlign=top;spacingLeft=4;spacingRight=4;overflow=hidden;rotatable=0;points=[[0,0.5],[1,0.5]];portConstraint=eastwest;whiteSpace=wrap;html=1;fontSize=14;" parent="mhfjtfYsQsaltl2Lk63X-14" vertex="1">
          <mxGeometry y="26" width="225" height="26" as="geometry" />
        </mxCell>
        <mxCell id="mhfjtfYsQsaltl2Lk63X-62" value="- translation_mode: type" style="text;strokeColor=none;fillColor=none;align=left;verticalAlign=top;spacingLeft=4;spacingRight=4;overflow=hidden;rotatable=0;points=[[0,0.5],[1,0.5]];portConstraint=eastwest;whiteSpace=wrap;html=1;fontSize=14;" parent="mhfjtfYsQsaltl2Lk63X-14" vertex="1">
          <mxGeometry y="52" width="225" height="26" as="geometry" />
        </mxCell>
        <mxCell id="mhfjtfYsQsaltl2Lk63X-16" value="" style="line;strokeWidth=1;fillColor=none;align=left;verticalAlign=middle;spacingTop=-1;spacingLeft=3;spacingRight=3;rotatable=0;labelPosition=right;points=[];portConstraint=eastwest;strokeColor=inherit;" parent="mhfjtfYsQsaltl2Lk63X-14" vertex="1">
          <mxGeometry y="78" width="225" height="8" as="geometry" />
        </mxCell>
        <mxCell id="mhfjtfYsQsaltl2Lk63X-17" value="+ find_furigana(type): type" style="text;strokeColor=none;fillColor=none;align=left;verticalAlign=top;spacingLeft=4;spacingRight=4;overflow=hidden;rotatable=0;points=[[0,0.5],[1,0.5]];portConstraint=eastwest;whiteSpace=wrap;html=1;fontSize=14;" parent="mhfjtfYsQsaltl2Lk63X-14" vertex="1">
          <mxGeometry y="86" width="225" height="26" as="geometry" />
        </mxCell>
        <mxCell id="mhfjtfYsQsaltl2Lk63X-63" value="+ find_translation(type): type" style="text;strokeColor=none;fillColor=none;align=left;verticalAlign=top;spacingLeft=4;spacingRight=4;overflow=hidden;rotatable=0;points=[[0,0.5],[1,0.5]];portConstraint=eastwest;whiteSpace=wrap;html=1;fontSize=14;" parent="mhfjtfYsQsaltl2Lk63X-14" vertex="1">
          <mxGeometry y="112" width="225" height="26" as="geometry" />
        </mxCell>
        <mxCell id="mhfjtfYsQsaltl2Lk63X-64" value="+ combine_result(type): type" style="text;strokeColor=none;fillColor=none;align=left;verticalAlign=top;spacingLeft=4;spacingRight=4;overflow=hidden;rotatable=0;points=[[0,0.5],[1,0.5]];portConstraint=eastwest;whiteSpace=wrap;html=1;fontSize=14;" parent="mhfjtfYsQsaltl2Lk63X-14" vertex="1">
          <mxGeometry y="138" width="225" height="26" as="geometry" />
        </mxCell>
        <mxCell id="mhfjtfYsQsaltl2Lk63X-19" value="" style="shape=image;verticalLabelPosition=bottom;labelBackgroundColor=default;verticalAlign=top;aspect=fixed;imageAspect=0;image=data:image/png,iVBORw0KGgoAAAANSUhEUgAAAiIAAAHiCAYAAADVtKcDAAAABGdBTUEAALGPC/xhBQAAACBjSFJNAAB6JgAAgIQAAPoAAACA6AAAdTAAAOpgAAA6mAAAF3CculE8AAAABmJLR0QA/wD/AP+gvaeTAAAAB3RJTUUH6AwRESAopkOrqwAAcMxJREFUeNrt/Xl0XOl93vs+76552DUDIEiAAMkm2WQ3QQIogFNLcssta+6WJdmOZdmxnERO1lES25paUrs1JM45ucdJbhLbJ77HzrEdXSeRFQ/yKMsWNTRHFACSPXBqkkCDBImhqlDzvN/zR6EKVWCB4IChhuezllZrAd0E8aJQ9dt7f+vdAkRE1PLOnDnzgsFg+IKUGAKkAHBVUZTf7O/v/00hhMYVovUiuARERC07fPTpdLqvCSF+DIAFAFLZAjK5Alw2IwBASpkXQpzRNO3XhoeH/4arRhxEiIjokZ06dcpjNBq/COBnAGwpDhvA5ekITl2ZxejNIHJ5Dbs6VBzd04Yju9thMiiloSQF4DuKorw4ODh4iatJHESIiGhVUkr96OjoJwF8CsCTpef+6XASp67M4uSVWURTuZr/rUEncLDXi2N72nBguxuKKL9shKSU3xRCfMnv989zlYmDCBERVRkfH39/Pp//LIDjQgg9ACwksgjcCOKVyzOYCiYe6s9zWo0Y3uWDf5cPT2xRy3MOgJtSyt/2+/2/zp6EOIgQEbWwkydP7jKbzV+RUj4PwAEAuYKGCxMhnL42hwuTIUj5+F9nq8cK/04vntnbDq9qLk4kEgVFESP5fP4rhw8f/jZ/GsRBhIioBZw4ccKlquqnpZQ/L4ToWhwKqrqPTK6wLl9bEWKlniQN4Ds6ne7FgYGBN/hTIg4iRERNpKL7+KQE+sSy7uPU1VlEkrkN/TuxJyEOIkRETW5kZOR9AD4nhHIMkAZgqfs4eWUGb80n6uLv6bIZMbSTPQlxECEiangXLlzYkc/nv7ZS93FxMgxtLcKPdbLVbYV/1/KeRBYURRlRFOXl/v7+7/CnzEGEiIjqyLVr1xyRSOSz1d2HxPWZOE5dncXZa3NIr1P3sV5W60nMZvPnDxw4wP1JOIgQEdFmGR0d/biU8jNSok+I5d3HHCLJbFN8nwadgoO9nlo9ybyU8o81Tfvi4cOHg3xEcBAhIqJ1Nj4+fkzTtJeklM8BqOo+Tl2ZxeR8vKm//1JPcmRPG3rb7KUPsyfhIEJEROul0buP9cKehIMIERGtk8ruAxBdQjR+97FeqnuSNpgMusWhBEkh8G2j0fjFvr6+y1wpDiJERLSKlbqPkevzOHVlDvOxNBfpPlbpSf6nXq9/qb+/f4ErxUGEiIgW1eo+IsksRq4HcfrqLCbm4lykR1DqSY7ubUOPr9iTSEAK4E0p5W/5/f7/xJ6EgwgRUUsaGxvrKRQKXxRCfBSABwDyBYnzE8GW7j7WS7knebIDXrupOJQs9iSapr08NDTEnoSDCBFRc2P3sflW6kkAJAH2JBxEiIiaUKn7AHAAgAKw+6gH7Ek4iBARNfPwcQTAy5qmPSeEMABAIpNH4Po8Tl+dw7W7US5SHSn1JMf2tmO7zwaAPQkHESKiBrNa9/HqW2EUNHYf9W6r24pje9txbE8bnFZj6cN5AGellF8ZGhr6O64SBxEiorrw+uuv21Op1OcBfExKuVMIwe6jSazWk+j1+hcPHTp0lSvFQYSIaMPV6j7uhJM4d30ep67MYj6W4SI1kVo9iZQSQogZKeU3hRBf8vv9Ea4UBxEionVz+vTpw0aj8csAflRKaQSAZCaPEXYfLeUBepL/KITgNTgOIkREj+/cuXPdQoiXlncfr98K49TVOYzfDLL7aGG1ehIpZV4IcVYI8fLg4OB3uUocRIiIHso3vvEN444dO35JCPGLNbuPN+eQzrL7oCX36UniAL7DnoSDCBHRqs6cOfOCwWB4UUo5jMXu4+5CCmffnMPpq3OYi3K/D1rdaj1JoVD44pEjR3gdj4MIEREwMjLy00KI/wLAUfpYNJXD2TfncObqHO/zQo/FbTPiyO42HH+yA50uCwBAk7JQyOefOHr06ARX6OHouQRE1AzOnTs3JIT4ihDinQDMlZ+TEjDpFViMeiwks1wseiw9PjsGdvrQ4bSUP6YIoRN6/b8A8CtcIQ4iRNQixsbG2gqFwpeFED8FwAcABU3itakwAteDeP3WAp7qcuHY3nY8udWJZ/a245m97Ygks3jlyiz+PDCFXIEba9LqurxWfGioB091uWDUKwCAdE7D2FQCQkgc3eHgIj0iXpohooYipdSPjo5+EsCnpJT7xOK9RCbm4jhzdQ5n3pxDLJW757/z2E04/IQPb9u3BR3OpRMmdxdS+LtX7+DE63e4uFTFYlTwnkPdOL6nDe7S3X0BXJ1J4exEDOdvJZDJa3h2jxMf7fdBSvkfhoaGeEaEgwgRNaMzZ868oNPpfhlCHBeLZ3PDiSzOXJvDDy/dxUzkwaPT3jY7ju5px/ATPjgsBgDFMylv3o3iT0fewtU7bA5blV5R8LZ9HXjn01vQ6baWXyTvRLI4OxHDmZsxxDLV767iIPKYa84lIKJ6df78+f58Pv+rAN4NwAoAqWwB5ydCOHllBpenI5CPsN3HxFwcE3Nx/I9TN/DkVieO7+2Af6cXe7c68bnnDyBX0DB2M4g/Oj3BpqRF9PV48O6DW7F7iwM6pTh+LKTyOD+VwOmbUdxa4OOAgwgRtYRTp055DAbDS0KIj+Xz+Q6gGJteno7g1JVZBG7MI5tfm65DSuDS7Qgu3Y7gD0/qcajHU+5Jjuwu7h0RTeVw8sosvhV4a82+LtWHNtWEDw334FCvB+bFPUJyBYkLU3Gcm4zjtenEIw26xEGEiBpMZfcBIZ6ElAIApsNJnLoyi5NXZhGt0X2spWQmj1NXZ3Hq6uw9Pcl7D23Dew9tY0/SBFbqPq4s6z5o47ARIaJNMzo6+kFN0z4N4LgQoqr7eOXyDO4upDb973i/nuRPzk3i2t0Yf5D1fsS92H28Y38Hujw2LPbN5e7j7EQM0fSj76rLRuQxfz5cAiLaSGfOnNltMBhellI+L6V0CCHWpPtYL6We5I/OTODpbhf8O33lnuTzL/SxJ6ljfdvdePehbbW7j4kYboV5N2UOIkTUEk6cOOGy2+0vCyE+BqBDSlnVfYzeDCKTq+/7vOQLGs5PhHB+IrRiTxJJZvHDy7P4i1HuT7JZ2hxmfGho+4rdx+vTCfB+hhxEiKgF1EP3sV5q9yQd6HBa8IGBLrx/oAt3Qkl89/W77Ek2gNWox7sPbavuPqTEjfk0zk7EMDIZZ/dRx9iIENGaGh8ff38+n/+sEOI4Kvb7GL0RxCtXZjA1n2ja773Ukxx+wgf1np7kLVy7y/1J1tLRPe1498GtNbuPc5MxRFIbc5aNjcjj4RkRInpsJ0+e3GU2m78ipXy+UCg4hBBI5woYv1nsPq5MR6G1wPsga/Yku0o9ydL+JN84fRORZI4PnEfwdLcL7+3vquo+Iqk8xqcSODMRwxS7Dw4iRNQaTpw44VJV9dNSyp8XQnQ1YvexXtiTrC12HxxEiIgALOs+gCcBCCFEU3Qf62XVnqS/C3fCSfztxWn88PIMF2xRZffhspsgwO6jWbERIaJVjYyMvA/A51Cx38dCIovAjSBeuTyDqWCCi/SQSj3Jkd0+2M1LPcmV6Qj++Nwkbs7GW3JdVuo+xqbiODMRQyiRr7u/MxuRx8MzIkRUU2X3AcABALmChgsTQZy+NocLkyFuf/0YSj3JN89M4KluF47ubkP/Di/2d7mwb5urpXqSJ7Y48IGBLuzvct3TfZydjOGtELsPDiJE1BKuXbvmiEQin63uPiQuT0dx6sosxm4GkW7R7mO95Cp6Equpdk+ykMzilSbrSdocxa3z/bt8sJmKL0V5TWKM3QcHESJqPaOjox+XUn5mIRLpE8u6j1NXZ/kOjw2yek+yDbdDSXzn1Wm8cnm24b6/1buPGDJ5Th+tho0IUYsqdR9CiGMADMBS93Hyygzemmf3US8avScpdR/bPFYoi+FHqfs4OxFHMNHYgy4bkcfDMyJELeTChQs78vn81+7tPkI4fW0OFyfDLbHfR6NZrSfJFjQErs/jf52dqJuzVzs7VDw/2I1925zQ6xQAQDRdwNhbcYxNxXF9Ps0fLHEQIWoFld1HNpvrEqJ4Ovz6TBynrs7i7LU5dh8N4n49yfG97Ti+t73ck3wr8BYKGxxZeFUz3t/P7oM4iBARKrqPhUifEMu7jzlEeKfYhlbZk3hVE4Z3+fD2fR1oX9aT/O3FaZy8sn49idmox3sPbcOR3W3wquw+6OGxESFqIuPj48c0TXtJSvkclnUfp67MYnI+zkVqcks9SRvs5uKx5nr0JLW6j7vRLEbfiuPsRAzBOtzvY72wEXk8PCNC1OAqu49CocDuo8Wt2pPkCwjcCOKbZycQfciepFb3kcxpGHsrhnMTMXYfxEGEqFWw+6DVVPYkNpMe/l0+HNvTjl0darknCSeyOHnl/j3JSt3Hq9MJnJuI48LtxIa3KMRBhIg2yUrdx8j1eZy6Mof5GI9I6V6JTB7ff+Muvv/G3Zo9yfv6t2E6lMRfjd/G2TfnoCjAjx3Yimef3gqv3YTSoFvqPgJvxZHO8T4vtDbYiBDVuUAgMCCl/M9CKEOANABAJJnFmWtzOH1tDlPc74Me5clfALu3OHB0TxuGdvlgMS4dl0qJqvu8nJss3mQunMxz4WpgI/J4eEaEqM5pmnxFUYQFkEhmC/hvP7iOketzvM8LPRYpgat3onDajNjRrqLLqy8fmUoA37sawdmJGKbCvM8LcRAhammKIiylI1SrUYdPPrcHPz60Hd974y7+/tU7yGs8RU4Pp7dNxQtDxejUUIpOswVcnU3jUJcN8/Esvjk+z4UiDiJEVDQ5F8fvfPcqhp4oBoftTjN+8mgvPnK4B9PhJP5q/BbOvckXDlqZ1ajHB/3dOLLbB4fFCKB45uPKTApnJ2IYn4rDZdXjUJeNi0UcRIjoXncWUvhWYAp/MXoLuzpU+Hf5cHRPG7q9Nvzic3vxCz+yG5enI/jm2QncCia5YAS9ouBt+zrwzqe3YKvbWv74W+EMzi1Gp7E0311FHESI6CFoUuLa3Siu3Y3im2du4qlud3mviAPb3Xi6241kNo/A9Xn8WWCKO6i2oEM9Hrzr4Fbs3uKATimWHwupPEYm4zh1I4rZGO+mTBxEiGgN5Aqy5l4RT2xR8Y79W/CO/VsQjmdw8uoc/iwwCeYkzavba8ML/u3Y1+WE2aADAKRzGkanEjhzM4qrsykGzsRBhIjWT+VeEZ0uC4ae8OH43nb4VDM+MNCF9x7axp6kyViMCp7399y3+8gWOH1sFCHE0RMnTpifffZZbujDQYSotS3vSY7uacPh3exJmuJJe4Xu404ki7MTMZyZiLH72DxHVFVNBAKBVxVF+XcDAwP/jUvCQYSopVX2JP/95I17epID291IZIo9yZ+OTCGaYk9Srw7t8OBdB5Z3HwWMTMZw+kYUM+w+Np1V3kRW+JQ81IOapv1BIDDyO0Io3wPw5cHBwTNcIQ4iRC1ttZ7k7fu2IBjP4Mw19iT1ot1pxgv+7TjU62H30QBUvIpthd9HDE8jpLwTYXHUqEnjjwHyxwKBQBTA3+Ryuc8fPXp0gqvFQYSopVX1JG4rhnZ5a/Ykfzl2CyPX2ZNspNW6j/O3EsjkOSXWKwENDlyEQ7uIbvz/sCCGEVKeRRQHHID4SYPB8JOBQGBGSvmHQoiX/H5/y18b5SBC1OLuhJP4ViBZsyf5p+/ai3/0bLEn+cbpm5gOp7hg6/FEvFr3cTOGWIbdR6PRIQmv/B68he8hCx9C4m0IKu9CGp0dQohfFsAvBQKBywB+w+/3/xYHESJqaexJNl5fjwfvPrgVe7Y4oFR0H+en4jh9M4ZbC7zPS7MwYh5b5J9gS+FPkEI3QsqzmMc7RV449wH4zUAg8B+klKellF8eHh7+PgcRImpp7EnWT5tqwoeGe6q6j0xew4WpBMam4nhtOsHuo8lZMIVt2h9gK75e3ZMI4zuEwPdarSfhIEJE91WrJ3lmbwd8qgkfGOjC+/q7cDuUwF+O38II9yep/cJjVPCeQ904vqcNbrsJALsPeuCe5A6APwDwtWbtSTiIENU5WUeHx7V6kiO724s9yXN78Y9+hD1J+cm1ovvodFshSmu42H2cnYghyv0+aNF9epJOAJ8XwOeatSfhIELUGIdOdWV5T3Kw14tje9rwdLe75XuSvu1uvPvQtnvu83J+KoHTN6O4tcC2hu6vsidJil0IimcRwjOVPcm/l1KeaZaehIMIET2WXEEicH0egevzsJn18O9c3pN0IBjP4sRr0/jbV6ebsiep1X3kChIXpuI4N8nugx6dVV6HVV5HF/5rZU9iquxJhBDfSqVSn3/mmWemOYgQUUtLpJd6kq0eK/w7l3qSnzi6Ax85sqNpepKa3YeU7D5oXVT3JP83FsRQuSeREh83m80fL/Uk2Wz2q8eOHWuYa6McRIhoXUyHkvhWqLl6klL38Y79Hejy2CAWL5mx+6CNpEPivj2JyWT87MjIyBtCiP+rEXoSDiJEtK5W6klKLUllT/LH5yYRT+fr7nu4b/cxEcOtMPf7oM1RsyeRzyhSOJ9GRU+i0+leHhgY+AEHESJqaZU9idNqxPAuH/y7fHXZk7Q5zPjQ0PYVu4/XpxPQ2H1QHblfT6Jphe/Xa0/CQYSINkUkmcV3Xp3Gd16dLvckpfvd/MTRHfjI4V5MzCfwZyOTeG1qYWOeyI16vPvQtnu6jxvzaZydiGFkMs7ug+peo/UkHESIaNOt1JPsbLfjl9//FHJ5DZenI/ijMxO4HVr7PZ2O7mnHuw9urdl9nJuMIZJi90GNqVZPMi+eQ0ZsrepJdDrdfxgYGPivHESIqKVV9yQ3cbDXs249yRNbHPjAQBf2d7nK3Ucklcf4VAJnJmKYYvdBTabck8jK/UnepkjheFrTtN8NBAK/JaU8s3hX4Fc4iBBRS8sVtHJP4rIZMbTThyN72tDbZq+6383D9CTsPoiKlnqS30NU9CMsjpd7EkD+sNSTSCk/5/f773AQIaKWtpCo6EncVvh3LetJjvRiYi6BPz03gddvRaqfcCu6D5fdBAF2H0QlAnk45QiccqRmTwLg4yMjI7eEEL+XzWb/zXr0JBxEiKihTC/e7+bPR6ewv8uFo7vbMLDTi53tdvzKB55GOlfAa1MLmJyL4eiednS6LBCL4cfthQzOTsQReCuOSCrPxSSqUN2TtCEknin1JF0AXjKZjF8cGRl5Q1GUfz84OPj/cBAhopYmJfD61AJen1qA+Yc3MLDDi6N72rBvmwv+nV4M7vBCiGL3MTJZvPRye4HdB9GDMGJuxZ5ESvlfA4HA/yWl/CGALw0NDZ3jIEJELS2dK+DU1VmcujoLt82ETz63B3s6HfijsXl8/80I7/NC9Bhq9yTHTJowPAfI50ZHRxcA/EmhUPji8PDwXQ4iRE1HcAkeQjiRQTCWATqBqXCGQwjRmj0TrdCTyAMuQHxCUZRPPEpPonBpieofX0yJqJ6UepLdhS/jQOEXsU37A5jkNIQQpZ4kPjIy8uro6OgnVvuzeEaEiIiIHtnj9iQcRIiIiGhNLPUkv4+oOISg+BEsiGEThL6qJzEajV84cODADAcRIiIiWnMCuXJPkocdYfE2BMXbkcCTLgCfyGYyPz8yMnILwK9wECGqU4FA4FkALzMPIaJGpkccbfKv0Sb/GmFxFJPKp1CAVQghuoWQ/5ODCFEduXDhwo5sNvtrQoj3A3BwRYio0eWFG7fxk1hQjqMAFRKAQAECBWjSqHAQIdpk3/jGN4w7duz4JSHEL+ZyuZ2lXUCtVgtcLiduT9/lIhFRg9FjTrwLs+J9yIgulM7smsUMvMoofLoAbuQ/jpi2k40I0WYZHR39uJTyMwAOYPGt9CaTEQ6HAy6XA0ajEQA4iBBRw4goQ7iL5xHHk4AojhhGEYFHGYdXOQezmK8xshDRhjl9+vRho9H4ZQA/KqU0AoBOp4PDocLlcsJqtXCRiKihJNGLu7qfQhQHUUDxOUyHDFy6i/CIABzKdQAr124cRIjW2blz57qFEC8JIT4KwCOlhKIosNttcLmcUFV7+aZsRESNIA8r7io/hSDejrxwAQAEJBzKm/Aoo3ArF6Eg90B/FgcRonVQ2X0A2Fn6uNVqKV960el0XCgiaiD37z68SgAGEX+EP5WI1syZM2deMBgML0oph3Gf7oOIqFGUuo+E2AeJ4gGUUUThUi7CpwRgEdOPOd4Q0WM5d+7ckKIoXwDwHgCW0qUXp9PB7oOIGlIaHbir+2ksYHhZ93HhgboPDiJE6z98VHUfACCEYPdBRA1r9e7jVSjIrvnX5SBC9IBW6j7MZjNcLie7DyJqQJXdxzZIFA+gHrf74CBCtIZK3QeAYSnlsu7DCaPRsK5fn+dVGs+ODgf2bHWh02ODzWRAJlfA1HwMFybmcTec5ALRposoftzFCzW7D68IwKpMb9jfhYMIUQ0rdR/FMx8b331I8I4z9a7bZ8ePH9mFd/Z1Y4vLuuK/9+pkEL/33Tdw8tIdLhptqJrdh8jApVyAW7kIh7gEsQnPNRxEiBadOnVqm8FgeFkI8QKADoDdB62uy2vHP33PAfxoXzce5OFxoMeLf/eJt+Hb42/hf//mCNK5AheR1k0eVswpH8K8eCey8ALYmO6DgwjRA2L3QY9KCODDR57AP//AQZgND/8YeXf/dvgcZvzy7/4Q2TyHEVrbl/Y58S7MKT+GNHpqdB+jMIhYHf1tiVpQre7DYDDA6XTA7Xate/dBjc1jN+PlfzCMI3u2PNafM7irHf/ygwfxf/7JGBeVHlsEA7ir/HhV92FAFG7dRXiVAKxiui7/3hxEqGVcvHhxMJvNfgk19vtwOh2w221cJFrVFrcV//mf/Ai6ffY1+fM+fOQJ/M3YW3h1cp6LSw+tVvehIF+MTnVjcIjLENDq+nvgIEJN7dSpUx6DwfCSEOJj2WyW3Qc9lt52B/7TP3kH2p1rFysLAfzDZ5/EZ37vFS4wPRANVsws6z5Q1X28BgWZhvl+OIhQ05FS6kdHRz8J4FNSyn2lQYPdBz2OLS4rfuuf/gg8dvOa/9lHn+yEy2bCQiLDhaYVhZR34K74UEN0HxxEqCWVuo+xsbHyfV6MRiO7D3psJoMO/8fPHV+XIQQAdIqA/4l2/N2FKS42VYmgH3eVDzdc98FBhFrG+fPn+/P5/K8CeDcAK7sPWg8vfsSPJ7vc6/o19mx1cxAhAEBW6cC0aOzug4MINbXK7iOfz1d1Hw6HCodDhaIoXChaEz/a1433DvSs+9fpdFu52C2suvvwoLinsoRdmYBXGYNHGW+o7oODCDUddh+0GSxGPf7lBw9tyNeym3npsBUtdR/bIYtXlGEWM3ArF+FTAjCKcNOvAQcRqmtnzpx5QafT/fLo6Ojx0uO11H24XE6YTEYuEq2bf/yup9b0HTL3PSLmLv4tIyGexLT4CcREH+Tiy/BS9zEKq7jdUuvBQYTqzvLuAwAURYHDobL7oA3jsZvxk8d3b9yLUybHRW9irdZ9cBChhnPixAmX3W5/eXn3YbNZ4XQ62H3Qhvvw0V0w6DfuMce78jaf1boPtxiHTvAt2xxEaNNUdh9CiCellAIATCYjXC4n3G4Xuw/anCdGnYIPHd65oV/zxkyEC98k7tt96EZhRIiLxEGENlMgEPiQlPKzgUDgsBBCBwB6vQ4ulwtOp4PdR82hjWuwkY7s3QKfw7KhX3P0+iwXvsEYdQIHu+wY6ilu9x8WhzGre99S9yFicCsX4FYuwi4muGAcRKgOBpABAGcAGIQQ5f0+XC4nrFYLF4jqxvATHRv69SZmo5iLpLjwDUARAnvaLRjqtaO/yw6TXpQPFrKiAwqycCtj8OrGoYqrEOBRBAcRqidfB1B+j6LRaIDdbuMQQnXHv7t9Q7/e2aszXPQ6t8VhxEC3DUd3OuCx3vvSKQTgUK5gl/7rTbvfBwcRavwjCUXRaZoGm82CVCqNdDqDqanb5c3I2tvbYDabuFC0qdx2E3a0Ozfs60kJ/OnZ61z4OmQ1KhjotuNwr4qdvuL2/pXnN+5Esjg7EYPZoOA9+92wiFkOIRxEqJ5pmiYAwOtxQ6/XI5VKIRZLIJFMIhaLIxaLQ6dToKoq2tvbYDDw4Ukbr7fdgY28IfO5a3dxcybKha+XF0VFYF+nFcM9dhzcZoNOqX4wxDIFnL0Zw+kbUczEim+5fnaPkwvHQYQajRCA1WqB1WqBpmmIJ5KIxRJIpzNYWIggEomWA1afz8O37tKG2agNzEr+6OSbXPRNpgiBHV4ThntVDPXYYVp823YpEk/nNFycTuLMzSiuzqYYj3MQoaZ7ElAUOFQ7HKod+XwBsXgCsWgcuVwec3PzmJubh9lsgs/nhdPp4ILRurIYN+5pcfzGHE5enuaib5JS93FkhwNem35x+ChOGRLA1dkUzk7EcP5WApm8xgXjIEIt8YDU6+B2OeB2OZDJZBGLJxBfPFNy69Y0bt++A4vFgi1b2mCxMHKltbdRW60XNIl/92fjPLreYLW6j0p3ozmcnYjhzM0YYpkCF4yDCLUyk8kIk8kIr8dd1ZMkk0ncuDFZ7kk6Ojqg1/PSDa2NRHpjtlr/n69cxZt3FrjgG/FCt0r3Ec0UMDYZx+mbMdxaYGzKQYRomdV6koWFCAwGPXsSWhO3gvF1/xpXbofx299+jYu9jkrdx0C3HcO9KqzG6u4jk9dw4Xax+7g2m4bGU1McRIge6MmlVk8SY09Ca+fG3QhS2fy6tSKheBqf/b1XkMnxtP966HAYMNhtZ/fBQYRoAx68D9CT2GxWdHS0wWw2c8HogeQKGsauz+H4vs41/7PTuQI+//unMMtdVNcUuw8OIkSbbqWeJB5PIB5PsCehh/KtczfWfBBJpHP49P/zCl6dnOcCr8WLl05g35bq7qPy6ko0o2FsMobTN6O4tZDlgnEQIdoY7EloLfzwjWlcvR3Gnm3uNfnzFhIZ/NLv/gCXb4W5uI9pu8eEwz1qze4jr0m8Op3Auck4XptO8B1JHESINldlT5LN5RCPF8+QsCeh1WhS4l//0Qh+91PPwfCYZ9AuTMzja//jLG6HElzYR1TqPg73qvDZDVXDB7sPDiJEDcFoMMDjdsLjdi71JPEG6kl4aLfhrk4v4Mv//Qz+1c8cveftng8iV9Dwf//ta/j6969A0/jze1hWow4D3TYc7lWxw2fG8p/A3WjxPi9nJ2KIptl9cBAhaiC1e5IUexK6x3dfvYXo73wfX/kHh+FzPNgGepom8XcXp/A733kdb83FuIgP84K0QvdRGkLK3cdEDLfC3O+DgwhRg6vsSQqFAhLJFHsSukfgzVn85P/51/iJY7vx/PAObPPa7/l3pATevLuAH7w+jT8fuYG74SQX7iGUuo+hXjtsRl15TYHq7uP16QR4comDCFFT0ul05Z4kl8shxp6EKiQzefz+iUv4/ROX0Om2YUeHAxajHlJKhOIZXL+7gFgqx4V6CB6bHoPddjyzy3Fv9yElbgYzODsRw8hknN0HBxGi1mKo6EnS6QziiWRj9SS0ru6EE7gTZnj6KNh9EAcRoodkNptgNpvg8biQTqXv6Un0eh1UVUV7ezt7EqJaLzKrdB+RVB7jUwmcmYhhit0HBxEiqk0RYsWeJBxeQDi8wJ6EqML9ug8NwIWpOLsP4iBC9Chq9iQx9iREpe7j+C4H2krdx+Ln2H0QBxGidbC8J4nFEognkuxJqGVYjQoObC12H3s6LPd2H5EsxqbiODMRQyiR54IRBxGi9VLqSbw+9yo9SRv0eh0XjBr3heMBu4+zkzG8FWL3QRxEiDbUg/QkRqMRTqeDPQk1lFL34e+xw26q7j6kAMbZfRAHEaL6stL+JNlsFnNz85ifD8JkMrInobrlseoxuN2OYzsdaFcNVZ+r7j5iyOQ5fRAHEaK6xZ6EGoUQAod71RW7jzuL3cfZiTiCCW7kRhxEiBpOZU+SXLx0k0qla/YkAHj5htadSS/wdKcVAOCz6fFzh9ur7/OSLmDsrTjGpuK4Pp/mghEHEaJmoAgBu80Ku82KQqGweFfgJDKZbLknAYAd7Xb8q58awKkrMzhzbQ7hRJaLR49NCCxGpyoOddlg0InFjxf/mStouHA7gXMTcVyaSfIm0MRBhKiZ6XQ6uJwOOFQ7QuEIYrEECgUNi68J6HRb8NEjvfjI4R5cuh3B6WtzGLsRRDrHrbDp4XQ6DDi8w4EjvSpU873v4MprEn84MofztxLc74M4iBC1ikQihfBCBJnM0tmOYDyNU1fmMHJjHnu3OvG+Q9vgsZuwv8uF/V0u/MO3P4HzE0GcvjaHV98Ko8C3KtAKnBY9BrptOLLDgS6XEQCqznBMhjJ4/U4S73vKjVi6gLMTMS4acRCh5iKEgOS53SrZbBahcBTJZKq8NqlsAecnQjh5ZQaXpyPlF4vpUBInXrsDm0mP9w90421PtsNi1MO/ywf/Lh8SmTwC1+dx+uocrt2NcnEJBp3Aga02DPfa8VSnDYpY2ukUAGLpAsam4jh9M4ZbCxm4LDq87yk3F444iBA1M03TEApHEI8XL72UjkwvT0dw6sosAjfmkb3P6fBEJo9vnL6Jb5y+iS0uCz5yuAd92z2wGvV4x/4teMf+LZgOJzFyfR6nrsxhPsawsJUoQmCH14ThXhVDPXaYlt2MMVfQcP5WEmduRnF1NsXugziIELWKaDSOhUgUudzSNtfT4SROXZnFySuziKYe/m2QdxdS+M1vXwYAPLnNhZ840osenw2dbite8G/H84PduD4Tx6mrszh7bY49SRPrdBjQ323H0Z0OeKzVT+0SwNWZFM5OxNh9EAcRolaSTKUQDkeRSmfKb4MMJ7I4c20OP7x0FzORtTtbcfn2Av7V/zoPg07BsT3teN/ANvhUM57YouKJLSo+dnxnuSe5OBmGxkPhhlfqPg73quh2m4pDR8WP9U4ki7MTMZy5GUMswyGUOIhQi5NSqq3wfZa6j1QqDU0rHnmmV+g+1kOuoOH7l+7i+5fuwmbS44P+bhzf0w6raakniSRzGLk+j9NXZzExF+eDs4HU6j4qLXUfUdxa4Nu8iYMItbiLFy8O5nK5r0opfxRA024XWtA0hO/TfYzeDCKzCZdFEpk8/sfJm/gfJ2+i02XBhxd7EofVgOcOdOK5A53sSRpAdfehwqSvnj5ymsT4VAJjU3G8Np1g90EcRKi13bhxoyMYDH5VCPHRbDbrBYrvmBFClM8QNIv16D7Wyx32JA2n02lEf5cNR3ao8NqW3ecF7D6IgwjR0pOilPrR0dFPAvhUOBx+UixuzWg2m+FyOeFyOXDjxiSy2cY/VVzqPtKZbPmCfDiRxeiNIF65MoOp+UTdfw+VPcnRvW344EA3PHZTuSf56eM7cGEixJ5kEzgtOgx02zHQbcdOn7k8dJQHysXu4+xEDNE0h0XiIEItbnR09IOapn16dHT0eOnxpNfr4XQ64HI5YTIZm+L7zGZzWIhEkUiklrqPXAHjN4vdx5XpaEO+WOcKGn7wxgx+8MbMij3JQjKLwPUgTl2ZxeQ8e5J1eSJWBPq23af7SOUxNpVg90EcRIgA4Ny5c4cURXkZwI9KKR1CCCiKAodDhdPpgN1ua4rvs6BpiEZiiMbiyOeLR5710H2sl8qeZKvbio8c7sHT3W44rcaqnuTUlVmcujqHSJIviI9jpe6jNM8WpMSFWwmcm2T3QRxEiHDixAmX3W5/WQjxMQAdQLH7sNmscDodcDjUprlDbCN1H+tlOpzEf/6bS1CEwP4uF358uAc9Phu2uq3l+92wJ3k0pe6j1n4fAHB1lt0HcRAhWjwyW+o+hBBPSikFAJhMRrhcTrjdLuh0uqb4XpPJFMILUaTTmfLHFhJZBG4E8crlGUwFEy35GNCkxGtTYbw2FYZBJ3B0bzt7kkdgMyro77bjcK/K7oOIgwitZqXuw+Gww+VywWw2NcX3Wav7yBW08ovqhckQT4dXyBVkVU/ywlAPju3xVd3vpjS8nbwyg7fmEy29XpXdx/5OK3SiOvyIZ/IYnUzg9EQMt8IZPsCIgwi1tpMnT+4ym81fkVI+33rdh8Tl6ShOXZnF2M0gLzM8gEQmjz985Tr+8JXr2Oax4aOHt+OpLjectlo9ySwiyVxLrMtq3UeuIPHqdLH7eH06Ad4smYiDSEtb3n1IKZu6+4hE41VvH27FF8r1cDuUwH/862JPsm+bEx8+3HtPT9Lsg94WhxED3bW7DyklbgYzODsRw8hknN0HEQeR1rZa9+FyOaHXN8fDotR9ZNJZyMUr8rx0sH40KfH6rQW8fut8sSfZ04YPDm6Hx27Cvm1O7NvmxM8VdjXNpS+rUcHAsu6jUqn7ODcZQyTFs2xEHERa3Pj4+Pvz+fxnK7sPnU4Hp1OFy+WE2dwcu6/n8wWEwgsrdh+MKTdGriDxg0uz+MGl2VV7kkaKgfWKwL5OK4Z77Di4zQbdsg0/Yovdx5mJGKbYfRBxEGl1ld1HoVCo6j4cDhV2uw1iWUDXkEfiGhCJRBCNxZHLFyBQPB3Ot5fWh6qexGvHR4e7sb/LBVeD9CTV3YcdJn3xciW7DyIOIlTDiRMnXKqqflpK+fNCiK5m7j7i8QTCCzFkslmUxqk73HCrrt0Oxqt6kp842osuT2VP0ls3G8Z1OAwY7LbjyA4HvDb94vAhy/9c6j5iyOQ5fRBxEGlhFd3HJwH0ARBCiKbsPtKZLEKhBaRSS3eJjSye4ucW5I2j3JP8UbEnObanHR8Y7K7qSX4mt3PDt9Bfrfu4G81hbCqOsxNxBBMMnIk4iLS4kZGR9wH43NjY2DEABqB0nxd2H9Q4cgWJ71+awfcvFfcn+fHhHhzZXexJju5pw9E9bUs9yTrcVFCvE9i3pbr7qHw4xbMaAhMxjE3FcX0+zR8YEQeR1nbhwoUd+Xz+a1LK5wE4AEAIQFWLwwe7D2pkiUweX//hdXz9h6v3JI+73f52jwmHe1QM96qwGqu7j4KUuHiL3QcRBxECAFy7ds0RiUQ+K6X8+Vwu11X6uNVqgcvlhNPphKKIpvheV+o+Rq7P49SVOczHeETaKpb3JD95tBfbPNbH6klK3cfhXhU+u2Fx+GD3QcRBhGoaHR39uJTyM5FIpLm7j3QGoXCkqvuIJrMYuR5E4Po8rt2N8sHQwko9yZcXe5K37duC9x3qgttuLPckH8vuxPmJYk9yeTpS9d9bjToMdNtwuFfFDp8Zy0d2dh9EHESowrlz594jhHhRCHFMStnE3Uce4XAUiWQKhULxSDZfkDg/EWT3QSvKFSS++9odfPe1O7CZ9PjI4R4c3t0Gs0Ep9yTzsXT5EsuHD3nR7Tbds99HMqthbCqOcxMxdh9EHESoVvehKAJ2u72puo+S29MzyBeWug/e54UeRSKTxx/84Dr+4AfX0eW14WPHd2B3pwNeu6n8+9LrNVcNMedvxXFuMo5Ld5O8oSERB5HW1krdR+VZEAkUz4BI4Luv38Ffjd9GOMEdKOnx3Aom8Nt/dxUv+LtxfG8H9Lrix6UErswmMTIRx/itOLsPIg4itFL34XA44HY7YTAYmvr7L41WQgDvfLoT/l0+nL46iz8ffQupLG8GRg9HUYD3HOrC25/sgE81o3Ti8GYwDZ/dANWkw3/+3h0uFBEHkdY2Pj5+TNO0l6SUzzVz97Ga0rsT/j/feg3bvTb4d/nwxBYV7z64DT/WtxXBeBYnXpvG3746DY0zCd3HoR4P3nVwK3ZvcZT7j4VUHiOTcZy6EcVsLIfPvWsbVJOOi0XEQaQ1jY2N9RQKhS8KIT5aKBQ8xaM3BXa7rSm7j4exkMjiynQE33l1GlvdVvh3eXF8bzt8qhk/cXQHPnKkFxNzCfzpuQm8fivCBxMBALq9Nrzg3459XU6YDcUBI53TMDqVwJmbUVydTbH7IOIg0toquw9N07pKg0ap+3A4HNDpFC5UhelwEt8KJPEXo7ewq0PF0T1tOLK7HTvb7fiVDzyNTK6AN25F8Ccjk7gdSnLBWozFqOB5f3GnVYfFCACQAK7MpHB2IobxqTiyBU4fRBxEWlyp+4hGowcAKK3WfawFTUpcuxvFtbtR/PeTN3Gw14Nje9pwYLsb/Ts86N/hQSKTR+D6PP743CTi6TwXrVmflBQFb9vXgXc+vQVb3dbyx+9Esjg7EcOZiRhiab67iqiRSQhoxVKBg8ijOn/+/LO5XO7Llft96HQ6OJ0OuFyOluk+1kOuoCFwfR6B6/Nw2YwY2unD0b1t6PHZ8Y79W/C2fR0IsSdpOod2ePCuA8u7jwJGJmM4fSOKmRg3GyNqdCm5FUFtECHtEHJShYCUHEQewenTpw8XCoW/F4vXXqxWC9rafLDZrC3bfayXhUQW33l1uqoneWZvB3yqiT1JE2h3mvGCfzsO9XrYfRA168ElnAhp/QgWBpCSW8rnRBbPjAgOIo/AZDK9T9O08sSRTKZw69Y0HA4VbW0+GAxc1vVQuydpW+pJ8gW8McWepN6t1n2cv5VAJs/TXESNTIMBEW0fgtogotpeSFT3kSaxAA0G5KSdl2YekQAAl8sBo8GAeDyBZCqNcHgBCwsR6HQKnE4n2tt9UBTGqWv+AGdP0nBW7T5uxhDLsPsgavSXxrjsQbAwgLAcQEEaqz6rQxYu3WvwiAAcynVczf8iB5HHpSgKVNUGVbUhn88jFk8iFksgl8shGAwhFArDYDDA6/XA43FxwdYBe5L61tfjwbsPbsWeLY7yTsELqQLOT8Vx+mYMtxa4qy5Ro0vJDoS1PgQLfmThXvbZApzKVbiVi3ArF6Hg3taLg8haHfHp9XC7HHC7HMhksojFE4jHE8hms7hz5y7u3p2BxWJBe7sXNpuNC7YOlvckx/a249ietqWe5HAvJuYT+NNzb+H1W2Eu2DppU0340HBPVfeRyWu4sNh9XJtN84aGRI1+ECgdCMs+hLU+xLXexY8u/V5bxS14dWPwKOehR/z+r59czrVnMhlhMhnh9biQSqURTyQRjyeRTCYxMZGETqdAVVW0t7exJ1kn0+EkvnlmAn98drJGT7K/3JP8r3OTuBNmT/K4LEYF7znUjeN72uC2m8pPSew+iJqHJvWIyP0rdh9GEYdHGYVXOQezmH/wA3ku7foRQsBqtcBqtcDndSORSJV7koWFCCKRKPR6HVwuF3w+D3uSdfnFuX9PcqjXg1g6i/GbIXzzzCSSWfYkD/zkUdF9dLqt5fsIsfsgaqpXshW6j+LZj+XdR+VZEQ4idaZmTxKNI5fLY25uHvPzQfYk66yyJ3HbTPDv9OLY3nZs99nwjv1b8PZ9HbzfzQModR/L7/NyfiqB0zejuLWQ5SIRNbi07EBoWfdRvmkpJFTlOjzK6IrdBweRej+SrNWTxFqnJ6mHOiCcyNzTkxTvd8OepJaVuo/RqQTGpuJ4bTrB/T6IGlxeWrEg+xDUBmp2HyYxA68yCp8usGr3wUGkgSz1JG6kUin2JJugsifZu9WB43s7MLDD0/I9CbsPoua3Xt0HB5EGJATYk2z6L6TEpdsRXLodgUGn1OhJ3IilczhzbR5/FphCugl7klL38Y79Hejy2FDaKLjUfZydiCHK+7wQNforzn27D4EMPLrXH6v74CDS4FbrSebm5mE2m+B2u9mTrJP79SQ/1rcV7zrQ2VQ9Sd92N959aFvt7mMihlth7vdB1OjSsh0h7SBCmh8Zubz7wJp2HxxEmukIdYWeJJ3OVPUkW7a0wWKxcMHWwYP2JH98bhKXbi00zPdVq/vIFSQuTMVxbjKO16cT0Nh9EDW0vLRgQR5c1n0sKXUfXiUAg4hvyt+Rg0gDWd6TxGIJJJLFnuTGjUn2JBug1JP8r7MTeHKrs6on+cwHnir3JH90dgIzC6m6+/tbjXq8+9C26u5DSnYfRE1Ek3rEsAfBwgAWtKdrdh8u5Tx8SgAWMb35B9z8kTWeyp5E0zT2JJtAStTsSfq2e+qyJzm6px3vPriV3QdR874yVHQf/ShIU+nZavGzG9t9cBBpIdU9SQGxeII9yQar1ZMcf7Id3d5iT/Lcgc5Nud/N090uvLe/q6r7iKTyGGf3QdQ0lrqPQWSkZ+lISRSHEEe5+3gVCupzjx8OIo8gn8+LejzLoNfr2JNsstV6kg8f7sXkOvYkbQ4zPjS0nd0HUTO/Bq3SfZiV2U3vPjiIEHuSOlCzJ9m59j1JZffhspsgUOw+bsyncXYihpHJOLsPogb3oN2HVwRgVaYb6nvjK1CTW96TxBNJxBbPkiwsRLCwEIHBoGdPso4qexLzKzoM9Hrh3+V97J7kft3HuckYIil2H0QN/gyOuOxBWOtDSBtEXpbOZC/e50Vk4FJeh1u5CIe4BIHGPN3JQaSFKIoCh2qHQ7Xftyfx+bxwOh1csHWQzhZw6uosTl2dhdtmhH+n756e5O5CCt997S6+f+nOPT3JE1sc+MBAF/Z3ue7pPs5MxDDF7oOo8Z8n7tN9VN/npX67Dw4itPoP/j49ya1b07h9+w57knUWTmTv6Ume2duOrW4rPv62nfjp4ztwfSaG771xF4d6POjrcbP7IGpSBVgR1kr3eenB0lZjRUvdxygMItZcr0f88dOD9iQdHR3Q63npZj1U3u/mwHY3juz2YWCHD3s6HdjTWTw7JQFcupvEuck4LnC/D6KGJ6FHVC7vPmR5CDEgDreuMbsPDiL0SNiTbD5NSlyYDOHCZAgW43W8r78L7+vvwnQki9/4/h1EUnkuElGDS8ouBLWBmt2HggKcyhvw6sYauvvgIEKPrbInyeZyiMeTiMcTa9OT8H7xDySVLeDa3SgAIJIqcAghamBp2YaQdgghbQAZ6a0aPqr3+3gNClqr9eIgQqsyGgzwuJ3wuJ0r9iQ2mxUdHW0wm81cMCIiPED3IZq3++AgQuumdk9S3GI+Hk+wJyGillbdfTwFCR1qdh9KAFYxzQXjIEKPij0JEVG1qPYE5gsvowBzeSwBAAUanMrri93HZQgwNOcgQmuqsifJ5XKI1ehJLBZesiGi5tLlMuJwrwNDPXYAQEp2orL7sCuT8Cpj8CjjLdd9cBChTWOo6ElSqXQxck0kkUqluThE1PBcVj2Gttsx3Ktiq9NYHDmkROnyi1ncgU8ZhUe5AIOIcsE4iNBmyuXySKUz0DSehiSiBj7A0gkc2GrDcK8dT3XaoFQ3p9CJPDQY4FVG0av/n1wwDiK0mdKZLEKhBaTTmcWjBECv18PpVBGNxpHL5bhIRFT3FCGww2vCcK+KoR4VJn319KFDFi7da/CIANLYgqn889CLJBeOg8jGEkJwEQDk8wWEwxEkkikUCsUbrSmKAlW1w+Vywm63QQiBWCzBxSKiutbpMKC/244jO1R4bYblz3ZwKtfgVUbhUl6HQPH5Lq1t4cJxENngSZnvAIGmAZFIBNFYHPn80l1erVYLXC4nHA4HdDquExHVP6dFh4FuOwa67djpK4b1ldsuWsUteHVj8CjnoUecC8ZBhDZTPJ5AeCGGbHbpjo8mkxEOhwNutxMGg4GLRET1/+KnCPRtW7n7MIkoPMoYfLpzMGGeC8ZBhDZTOp1BKBypeudLqftwOBywWnl3XiKqfyt1H6W7TlR2Hw7lOgDejoKDCG2afD6PcDh6T/dht9uqug8ionrX6TSiv8tWs/sQKMCpuwq3chFu5SIUMKjnIEKbRtMkIpEoYoubkZWw+yCiRmMzKujvtuNwr8rug4MI1bv7dR8ulwNGo5GLRET1/4JW0X3s77RCt+ysrUnE4FFG4VXOwSzYfXAQoU1Vq/vQ6XRwOFS4XE52H0TUEFbrPgTS8OjeYPfBQYTqwUrdh81mhcvlhKraN6T74NMAET2uLQ4jBrptOLrTAY+1+qVMAHDo3oRHGWX3wUGENpumaYhE44jF4uw+iKihWY0KBpZ1H5XM4hba2H1wEKH6wO6DiJriRUoR2NdpxXCPHQe32aBbtuGHkd0HBxGqH6Xuo/I+L+w+iKjRVHcfdpj0xbO2S/t9ZODSvc7ug4MI1YPV9vvYqO6DiOhxdTgMGOy248gOB7w2/eLwURoyJJy66+w+OIhQPbhf91G69KLT6bhQRFT3Vus+LMosvMoofLoAuw8OIrTZEokkFiIxZDLZ8lHCUvfhhNHI+7wQUQO88NToPmTF1RWjiMOlnIdPCcAiprlgHERoM6XTGSxEYkgmU+XhQ1EUuFxOdh9E1DBK3cdAtx3DvSqsxuruQy/YfXAQoQcmhBBSrt8vSa3uQwgBVbWz+yCihlLqPg73qvDZDYvDR/H5U0DCUe4+XoWCLBeMgwhtlpW6D7PZvHj2g90HETUGq1GHgW4bDveq2OEzY/lhU6n78CoBGAS7Dw4itKlqdR8GgwFOpwNut4vdBxE1xouJTmDflnu7j9IQwu6DOIjUkWw2V77Pi6ZpANh9EFFj2u4x4XCPiqFeO2zG4lnbcveh5OBSXoVbuQiHuATB7oM4iGyepe4jiUKhOHyw+yCiRtShGjC4fXn3Ufwcuw/iIFJH2H0QUbNYvfuYWew+RmEQMS4YcRDZTOw+iKgpXiBW6T4MiMOtOw+vCMCqsPsgDiKbqtx9JFPQKvb7cDodcDodsNttLb9GpStP6/nWZyJagxcGReBj/jYMbLfDYqi+O7dOaHAqr8GrG2P3QRxENpumaZgPhhGPJ9h9EFFD2+Yy4fhOFQCgmnU4vstRsduphEMpdR+vQUGGC0YcRDb74B4AwuFI+QNWqwVOZ3GrdUVRuEJEVPecFj2GeuwY7rFjm8tUHDmkLB9AWZTbaNONwS3Gud8HcRCpM4erFlGvg8OhwuNxc2WIqK4ZdAIHttow3GvHU502KMtO2gohoBMZ7NX/BixihgtGHETqkZTSBBRvOFcoFJDPF3D37ixmZuZgNpvR1uaDqrIJIaL6ULrPy3CviqEeFSa9WHwuW3whEBm4xRhU5U3cyP8s9EhxCCEOIo3AZrPC7XIgnc4gFksgnkgilUrhrbemIISAzWZFR0cbzGYzF4uINlyn04j+LhuO7FDhtVW/W0+gAKfuKtzKRbiVi1CQQ1Y6uWjEQaQRmc0mmM0meH1upFNpxGIJJJIpxOMJxOMJ6PU6qKqK9vY26PXcN4SI1o/TosNAtx0D3Xbs9BUPgirf12IVt+DVjcGjnIce7D6Ig0hTUYSA1WqB1WpBoVBAIplCLJZAOp1BOLyAcHgBRqMRTqcDPp+HUSsRrc0TuSLQt23l7sMkYvAoo/DpzsGEeS4YcRBpdEKIVffC0Ol0cKh2OFQ7crkcYvEk4vEEstks5ubmMT8fhMlkhM/nhdPp4KIS0UMf+Nyv+xBIw6N7Ax4RgEO5DnC/D+Ig0roMBgM8bic8bmdVT5JOZ3Dr1jRu377DnoSIHkip+zi60wGPtfopXABw6N5c3O+j2H0QcRChKpU9SXLx0k0qlWZPQkQrshoVDHQXbzLH7oM4iNCaUISA3WaF3Wa9b0/icjnR1ublghG12pNzRfexf4sVumXhR6n78CrnYBbsPoiDCD2G+/Uks7NzmJubh8lkRFubDw6HygUjauIDlKXuww6Tvhi0s/sgDiK0Ye7Xk0xN3eb+JERNaIvDiIFuG47scMBr0y8OH6UhQ8Kpu87ugziI0MZjT0LUvGp1H5Usyiy8yih8ugC7D+IgQpuruifRkEgmG7InWTrC4x2JqUWfcBWBfZ1WDPfYcXCb7Z7uw1juPkZgFnNcMOIgQvVHp1Pu6UlisXhVT2KxmOHz8X43RPVyILHDa8JAtx3DvSqsxuruQ4cMXLrX2X0QBxFqPCv1JMlk9f1uOjs7YDQauWBEG6jDYcBgtx2HdzjgW9Z9CEg4yt3Hq1CQ5YIRBxFqbPfrSa5du8GehGgDPGj34VUCMAh2H0QcRB7Ratu7b6bl+5PE48nyu264PwnROjyJ6gT2banuPiqfIowiDpdyHj4lAIuY5oIRcRBpHTqdDk6nCqdTRTabQzzBnoRorWz3mHC4R63ZfegFuw8iDiJUxWg0wGNkT0L0ODpUAwa3Fy+9+OyGquGD3QcRBxF6QKWexOdzl7eWZ09CVJvVqMNAtw2He1Xs8JnvefO5RZlh90HEQWRjSSmFEI2/F4ao0ZPE4glkMln2JNTaT4wrdB+l33oDYnDrLsArArAq7D6IOIjQY2NPQrTUfQz12mEz6hYPPBafLJUcXMqrcCsX4RCXINh9EHEQofVRqyeJxRNVPYmq2tHR0caehBqex6bHYLcdx3c50Mbug4iDCNWXlXqSaDSGaDTGnoQa0oN3H6MwiBgXjIiDCG22mj1JLIFMlj0JNciT3Srdhw5ReHUX4VUCsHK/DyIOIlS/7ulJ4glEY4l7epL29jbYbFYuGG2q+3UfOqHBqbwGr24MDnEZAhoXjIiDCDUSo9EAj8cFj8d1T08yMfFWVU9CtFG63Cao5uLT2+ff1VU1fAASznL38RoUZLhgRBxEqBmU73fjdSGRSCEWjyOVypR7kpIvfOgATl+bw6krs5gOJ7lwtCZcFh2GelQc7lXR6TQujhxLl14syjR8yig8ynl2H0QcRKiZKYoCVbVBVW3I5/OIxZOIxxPIZnMAAKfNiPce2ob3HtqGyfk4Tl+dw9lrc4imclw8eigGncCBrTYM99rxVKcNiqjeTF0A2KL7HjzKKCxihgtGxEGEWu4BptfD7XLA7XLgxs0pSCmRzORhMxUfej0+O3p8dvzU0V5cno7i1JVZjN0MIp0rcPGo9qArBHZ4TRjuVTHUY4dJr1R9PpPXcG4ihqc6bfDa9Nim+ysuGhEHkebUDLurbqTSXYv/zZ9chGo24OieNhze3QazQQchBPZtc2LfNid+rrALFyZCOH1tDhcmQ5DcN4oAdDoM6O+24+hOBzzW6qeuvCZx6W4S5ybiuHg7gbwm8bl3meC18SmOiIMIBxC6ZyABrt2N4trdKP77yRt4qtuNo7vbMLDTB0UABp0C/y4f/Lt8WEhkEbgRxCuXZzAVTHDxWozToi/v99HtNpUfPyVvhTI4NxnDyGQc8QzPohFxECF6SLmCxPmJEM5PhGAzXYd/lw/PPNmOne0qAMBlM+K5A5147kAnpsNJnLoyi1NXZxFJsidpVrW6j0rRVB7n3orj1I0oZmN8HBBxECFaI4lMHt9/4y6+/8ZddLqtGNrlxTN7O+BVi0fCW91WfPRILz5yuBeXpyM4dWUWozeDyLAnaXjV3YcKk756+sgUJC7cSuDMzSiuzqZ4uY6owWWlCzlp4yDyGLjr0Tq7E07iW4Ek/mL0FnZ1qDi6pw1Hd7fDaFAgBMo9yc/kdmL8ZgiBG/PsSRpQp9OI/i4bjuxQ4bUZqj5X0CTeuJvE+FQC41NxZAv84RI1soI0YUH2IagNIqbtQPF9bbLAQeQBnThxwmy3218UQnwCwHauyAZNfFJW9SQHe704tqcNB7a7oQgBs0FXHFL2tC31JFdmMDXPnqReOS06DHTbMdBtx06fGUD1W27ZfRA1DwkFUW0PQtoAFrSnod1z/kPoOIisYnR09OOapn1aUZQ+KaUCFLc4LxT4BLnRcgWJwPV5BK7Pw2bWw79z9Z7k5JVZ7k9SB/SKQN+2lbuPWCqPs5PsPoiaRUp2IKQNIqj5kZP2qs8pigKn04lkMolMJsNLM7VcvHhxMJvNfgnAe6SUFiEEhBBwOh1wOh1IJpOYmwtyoTZRIr3Uk2z1WOHf6cUze9vhVYtH2OxJNt9K3Ufp8hm7D6ImO1iEE2HtAIIFP5Jya/mcSInVaoXX64XH44Fer8fVq1c5iFQ6deqUx2AwvCSE+Fg2m+0AFu84a7fB5XJCVe3lt+0mk9yWvJ5Mh5L4VmhZT7KnHUZ9dU/ysexOnJ8I4eSVGVyejvCFb52Uuo9a+30AwNXZFM5OxNh9EDUBDQZEtH0IaoOIanshoVQNH2azBW63G16vFyaTqeaf0dKDiJRSHwgEfkUI8YtSyp2lQcNsNsPlcsLlckCn0/GR1ii/ECv0JH09HggAZoNS1ZOcvjaHVy7P4O5Ciov3mGxGBf3ddhzuVWt2H3ciWZydiOHMRAyxNM9KETU2gbjsQbAwgJA2AA3Gqs/qdPry8GG321f901pyEDlz5swLBoPhxbGxsWEhhAIARqMRTqcDbrcLRqOBj7MGV9mTOK1GDO/yYXi3r6onKd3vhj3Jo6nsPvZ3WqFbttFfLJPH2ZvsPoiaRbn7KAwiB7V6NBECDocDXq8XLpfroTb+bJlB5Pz58/35fP5XAbwHgEVKuRjMFLsPu93GR1mTiiSz+M6r0/jOq9MP3JMEbswjm+e7tJdbrftI5zRcnE6y+yBqloM6OBDW+hAsDCIpty1+dOXu45EOapp5ASu7j3w+X9V9OBwqHA4ViqLwkdZCavUkx/a2w6Bb1pM8w56k0haHEQPd7D6IWkHt7mOJ0WiCx+OBz+dbsfto6UFESqkfHR39JIBPSSn3sfuow59RPfyiVfUkN3Gw17Nsf5KlniScyOLMtTn88NJdzETSLfNzshoVDCzrPiqVu4+bMcS43wdRg1ut+9DB5XLB4/HA4XCs6VdumkHkzJkzL+h0ul8eHR09Xvq+St2Hy+WEyWTk44xqyhW0ck/ishkxtNOHY0+2Ybu3GFm5rIZyTzI5F8fpq3M4++ZcU/YkekVgX6cVwz12HNxmg27Zhh/RTAFjk3GcvhnDrYUMHzxEDS4lO4qXXrQhZKXrns87nc5H6j5aZhCp6D7eDcAKFDdKcThUdh/0SBYSFT2J2wr/svvd9LTZ0dNmx08d29E0PUl192GHSV88DVve7yOn4QK7D6LmOfgqdx8DSMquxY+ubffR1IPISt2HzWaF0+lg90FrZrrG/W5q9yQ7cH4i3HA9SYfDgMFuO47scMBr0y8OH7L8lFTqPs7fSiDDcJeooW1099F0g0hl9yGEeFJKKQDAZDLC5XLC7Xax+6D1+wVepSexGPXlniQUz+Dsm/P44aUZzETqb3+S1bqPu9Ecuw+iprHUfYTlAArSWHX2Yz27j6YZREZHRz+oadqnK7sPvV7P7oM2Ta2e5Pi+NnR7ij2Ju2J/kom5OM5cncOZN+cQ28SepFb3UXnWJprRMDYZw+mbUdxayPKHTNTg0rIDIa0PwYIfWbjv+bzT6YLb7Ybb7a6LKwh1N4icO3fukKIoLwP4USmlQwjB7oPq0vKe5Njedhzb0wantTgg97bZ0dtmx0eP9OD1WwsIXA9i5Po8coX1v8xR6j4Guu0Y7lVhNVZ3H9mChgu3kxibiuO16QS7D6JGP0iSDoRlH8JaH+Jab9WZD2Dju4+GG0ROnDjhstvtLwshPgaA3Qc1nOlwEt88M4E/PjtZ0ZN0wKAT0OsUHOzx4GCPBz/9zA5cWMeepNR9HO5V4bMbFocPdh9EzUiTekTk/rrsPhpiEFmt+3C5nHU3tRGt/sRw/57EWqMn+cGlGcw+Rk9iNeow0G3D4V4VO3xmLH+DXan7ODsRQ5T3eSFqcPfvPoQQ8Hg8m9591PUgslL34XDY4XK5YDab+DijplCzJ3myHd3e4uXFWj3J6WtziKdX70n0OoF9W+7tPkpDCLsPouZS6j5Cmh8Z6V4cSVAePlTVAY/HUzfdR90NIidPntxlNpu/IqV8nt0HtaJaPckze9uhWoqXT5b3JKeuzuH8ROieP2e7x4TDPSqGeu2wGYvvFCtd3slrEq9OJ3Bukt0HUTPISwsW5EEEtYGa3YeljruPuhhETpw44VJV9dNSyp8XQnRJKdl9EKG6J9m71YHjezvg3+mBQa+DThHlniSRyeOt+QQAoNNpxNc+sB1e27LuQ0pcnU2z+yBqEg/afXi9XpjN5qb4ntd0EKnVfQgh2H0Q1XzCkbh0O4JLtyP4+g91GNzpxdE97di3zQmg2H6U/r/LooOUS09Id2JZnL4RR2CS3QdR46vsPvpRkKaqsx+N2H1s+CAyPj7+/nw+/9nK7kOn08HpVOFyOZtmaiNaL+lcASevzOLklVl47CYc2d2Go7vbsNVjLf87sayGszdjOHszijvRHBeNqNF/72U7QtpBhLRBZKSndERfjj8cDmfDdh8bMohUdh+FQqGq+3A4VNjttnW7QQ5RMwvFM/ir8Vv4q/FbePu+LfiH79iFG/Np/IfvTkNj+EHU0Gp3H0vMFgu8Xi98Pl/LXEF4qO+S3QetCb6YPrCFZPEOt5m85BBC1KA0qUcMexAsDGBBe7pG92Fsuu5jTQeRiu7jkwD6ALD7ICIiuq9i9xHW+hDSBpGXltKrKoD6uc9LXQ8iIyMj7wPwubGxsWMADEDpPi/sPirGNC4BERGV3a/7aPT9PjZkELlw4cKOfD7/NSnl8wAcACAEoKrF4YPdBxER0fJD0uJLaUg7hJnC2wCgaofjUvfh9XphMBi4YMsHkUAg4BRCfFFK+bO5XK6zOHwI2O02OJ0OqKqdUxsREVGFAswIFw4gJAcR03YAAHJSLX/eYDSWNxvjFYRVBhEpcQMonj/S6XRoa/PC6XSw+yAiIqogoSCq7UVQG0BEewrasrpBUZRydGq327lgDzqICAFPecIrFDAzM4dEIon2dh+nOCIiankp2YGQNoig5kdO2stjCQAoKMCAMDLwoa2tDV1dXVywhx1EgNIdbx2IxRJIpdKIxeKIxeLQ6RQ4HA60t7dDr+flGSIiag05OBHWDiCoDSGpdVYNH4CEXZmEVxmDW4xjTjuC24X3s6F8nEFEALDbrLDbrNA0DfFEErFYAul0BuHwAsLhBRgMerhcLvh8HjYjRETUdDQYENH2Ld7n5UlICFS+O9IsgnAr4/AqAZhEmAu2loNIJUVR4FDtcKh2ZHM5xONJxOMJ5HJ5zM3NY25uHmazCT5fsSUhIiJqXAJRbRdC0o9w4WloMFa/SIosXGIcXt0Y7GKCy7URg0glo8EAj9sJj9uJTCaLWDyBeLx4puTWrWncvn0HNpsVHR1t7EmIiKhh1O4+Fg/IhQZVXIFXGYVLeR0CvLHkpg0ilUwmI0wmI7weN1KpFGKxBBLJFOKLw4lOp0BVVXR0dLAnISKiulPuPgp+JOXWxY/W7j50IsMFq7dBpEQIwGq1wGq13NOTLCxEsLAQYU9CRER1obr72Lt4n5da3ccoTCLEBWuEQaRSZU+Sy+UQY09CRESbrnifl2BhACFtgN1HMw8ilQwVPUk6nUE8kWRPQkREG6bcfRQGkYNafeAsJFRxmd1HMw8ilcxmE8xmEzweF9Kp9D09iV6vg6qq3J+k1Y5RhICUkrcKJKI1k4MDYa0PwcIgknLb4keruw+3chEeMQa9SHLBWmUQWZpARbknKRQKSCRT3J+EiIgeS+3uo+JgWITgVsbYfXAQqabT6e7tSWLsSYiI6EGs1n1k2H1wEHlwy3uSWCyBeCLJnoSIiKqkZEfx0os2hKx0LftsHk7lGrsPDiKPp9STeH3uVXqSNuj1Ov7EiIia3FL3MYCkLN1Ebqkus4pb8OrG2H1wEFlbD9KTGI1GOJ0O9iRERE1Gk3pE5P4H6D7GYBJBLlizDSL19i6GlXqSbDbLnoSIqGksdR9hOYCCLHUfxVclHTLFzcZ0Y7CLyTp8taI1G0TqGXsSIqLmkpYdCGl9CBb8yMK9bDTJw8Hug4NIvWJPQkTUmHLSgbDsQ1jrQ1zrXfxoje5DGYceCS4YB5H69qA9icvlRFublz9lIqJNsFr3YRRReJRx+JRzMIl5LhgHkcZUsyeJF3uS2dk5zM3Nw2Qyoq3NB4dD5U+ciGhd3b/7EEjBq1xg90HNM4hUul9PMjV1G0II9iREROsgLdsR0g4ipPmRke7FoaM0mmhwKFfYfVDzDyKVKnuS5OKlm1QqzZ6EiGiN5KUFC/IggtpAze7Dwu6DWnkQKVGEgN1mhd1mRaGgIZFMsichInpEmtQjhj0IFgawoD1do/uIwaOMsfsgDiK16HQKexIioodW2X30oyBNix8vdR9peHRvwCMCcCjXwe6DOIg8APYkRET3t9R9DCIjPYuzh1yMP3ifF+IgsmbYk2wsKXm0RFTPCjDhUu5fVNznZYlFmYZPNwqPch56xLlYxEFkLVX3JAXE48nyWZJST2IyGWEwGAAAmUwOhUIBOh2HEyJq4MFDmrAg+zBfGARQjFDzWBpCjGIBHuU8fLpzMIHdB3EQ2RA6nQ5OpwqnU0U2m0MsFkcsnkQmk0UmkwUAxOMJJBJJWMwm2O022O1WCCG4eERU9yQURLU9CGmDWNCegrbs5UARKXjFeXiUMdiVt8DugziIbCKj0QCv1w2Px4VUOoPZ2SAKheL1UCklkqk0kqk05uZDsFktUFUbLBYzhxIiqjsp2YGQNoig5kdO2stjCVDc70NCgV4k0Wf41xDIc8GIg0g9EULAajFDr9ehUCjAZrNCSolUKg0pJaSUiCeKl3N0Oh3sditUuw0mk5GLR0SbJgcnwtoBBAt+JOXWquEDAKzidnGnU9zApfwvQYcshxDiINIITCYj3C4HNE1DPLG0PwkAFAoFRCIxRCIxGAwG2O1WOFQ7Y1ci2hAaDIho+5bd52Vp+Kh1n5esdHLhiINII1KUe/cnicXiyOeLl29yuRzC4QjC4QjMZhNU1QbVbuOlGyJaYwJRbRdC0o9w4WloqD4bq0MWbmWc93khDiLNbPn+JMUzJXFoWvEXPp3OIJ3OYH4+zJ6EiNZE7e6jNJrwPi/EQaRllfcn8biRShX3J0kkU+xJiOix5eBAWOu7T/fB+7wQBxEqHZEIwGq1wGq1oFAoILG4adpKPYmq2uBQbdyfhIiqrN59RIr7ffA+L8RBhFai0+nu7UmiceQLSz1JKLSAUGiBPQkRofI+LyFtoEb3kYNL9xrv80IcROjhsSchopWUu4/CIHJQl40m7D6IgwitsVJP4vG4kE6l2ZMQtaCl7mMQSblt8aO1ug/e54U4iNA6UYRgT0LUQmp3H0uMIgaPMsb7vDwKQxtg7gX0bgA6IB8GMhNA9i7XhoMIPYhaPUk0Gi9vL1/Zk1gtZt7vhqhhrNZ9ZNl9PCrzLsD9HsB5HDB01P53MlNA6C+A4LcAmeWacRChBxrsl/UksVgCsXgCUhafoBrhfjelvyvAQYlaU0p2lN9ym4V72WcLcCpX4VYuwq1chIIcF+xhWPcDW/4RYDu0+r9r6gY6/xngfQF4618BqatcPw4i9FADf2l/Ep+bPQlRnVvqPgaQlF2lsXzp9ZPdx+NRTMCWXwS8zz/8QY5xK7Dz/wtMvAgkLnItOYjQQ//+sSchqkua1CMi99+n+4jDo4zCq5yDmft9PDrLXqD7C8UzHI8zyPR8Dbj2T4DcHNeUgwg9qgftScLhCCxmE3sSojW31H2E5QAK0lh19oPdxxpzHAO2/yog1uBsr04Ftv4LYPJXua4cRBrDUutQn+7Xk0gpyz3JfDAMm80Cu83K/UmIHlFadiC0QvchIKEq1+FRRtl9rCXXjwJdnwfEGp7ddRwDLHvYi3AQobVW2ZMkFy/dpFJpSCmhaVpxSIkloNfrYbNZ4FDtMBoNXDii+8hJB8KyD2GtD3Gtt+rMBwCYxQy8yih8ugC7j/UYQrq/gHWJ3t3v4SCyWYMIj4SbnyIE7DYr7DYrCgUNiWSyqifJ5/P39CSqaoOePQkRAHYfdcGyG9j2aazbO+/UYa7xZg0i1Fp0OoU9CdEDuX/3IZCBR/c6u48NeeJyANu/UoxL14uxs9iLFGJcbw4itFFq9STxRBKaptXuSew2WC1mLhw1tbRsR0g7iJDmR0a6F4cOlP/J7mMTdH0GMG5Z/69j3AqkrnC9OYjQZniYnkS1W2FXbTAa2JNQc8hLCxbkQQS1gZrdh4ndx+ZRhwDH8Y35Wjob15uDCG226p6kgHi8uEFaZU8SXogivBCt2J/EDp1O4eJRQ1m9+0jApZyHTwnAIqa5YJvyhGQCtv7LjfyCXHMOIlRPdDodnE4VTqfKnoSaRGX30Y+CLDUH7D7qkucDxXZjw6bTJNecgwjVK/Yk1MhqdR+QcjH+kHCUu49XoYA3QquXoRHeD23sl+TuqhxEqDHU6kmSyVTxgKKqJ9FBtdtgV3ndlTbHvHZkWfdR8ThWZuFVRuFVAjAIdh91Rz1cjEc3ipYEcnzrNQcRaiir9ySFck9SYjPpMc93x9F6DckGBf1ddnhtxZB6Mv/hqs8bRRQu5SK8IgCrwu6jrnnev7FfL3ERvBTHQYQaWGVPks3mEIvFEYsnyz1Jya9+5CAu3V7AqauzGL8ZQjpX4OLRYw7EwP5OK4Z7VPRts8Ggq26UhMjAq1yER4xCVW7yxaYRCB1gP7SxXzM+ynXnIELNwmg0wOt1w+NxIZXOIB4vXqopvigA+7tc2N/lQjZfwOiNEE5dncWl2wuQfH2gh9DpMODwDgeO9KpQzcVdgCsfQ0II9Oq+DpfyBvf7aDTWfYBi3eBBZIzrzkGEmu6gRghYLWZYLWbE40lIKWE2m5DJZCGlhFGvw9E9bTi6pw2RZBYj14M4dWUWk/O8Xk+1uax69HfZcGSHA12u4k6nlfOrqtrh9XoxOzuLdDoFj3KBi9aIbP0b+/WSl4D0BNedg0jjvcjSgyvdtbi9zQtFEUgsRq6lnsRhNeK5A5147kAnpsNJjFyfx8krswjGMly8FmfQCRzYasNwrx1PddqgiOq7YJuMRng8Hvh8PphMxbfjzs3x3Q8Nzdy7sV8v+Mdccw4i1Ep0Ot0997uJxeLI54u9SKfbihf82/H8YDeuz8Rx6uoszl6bY0/SQhQhsLvdjCM7HDi4zQqTvnqjKb1eD7fbDa/XC7vdzgVruumzfeO+Vi4IRH7ANecgQi37fLNsf5J4ojiUaJqEEAJPbFHxxBYVP318By5MhHD62hwuToahMShpSrW6jxIhBBwOB7xeL1wuF89KNvXRyga+5X/2DwCZ55pzECFa2p/E43EhnUojFksgkUxBSgmDToF/lw/+XT4sJLMIsCdpGjW7j4o502q1wuv1wuPxQK/n0xatoeRlIPSXXIcNJKVEJBJBJpPhIEL1SxECVqsFVqsFhULhnp7EtawnOXVlFqeuziKS5DsjGkXN7qPi8ybTvd0HtZBCYiNeEoHp/wS+nXtjJBIJBINBhMNh5PPlM1CTHESo7tXsSaJx5Bf3J9nqtuKjR3rxkcM97EkaYMDc4TVhuFfFUI/93u5Dp4PL5YLH44HD4eCCtbLsDGDdv75fY+b3gdQVrvV6/hizWYRCIQSDQaTT6YqTIvJ1IcR/9Pv9v8NBhBrrKLrG/W5i8QSkZE9Sz0rdx+FeFQ52H/Qg0tcAPLt+f370FWD261zndVAoFLCwsIBQKIRoNFo1+kkp/1AI8dLQ0FD57oIcRKhhVd7v5r49SSKLwI0gTl6ZwVvzCS7cBnFa9BjotuFwr4put2nxMGjp8+w+6L5io8CW9RpybgJT/xa8JLN2pJSIxWIIhUIIh8PQNK088gH4+3w+//kjR45cq/Xf8refGt5qPYnTxp5ko9TqPiqx+6AHHxbeLP7P/MTa/7k3P1+8wR09tlQqVb70ksuVn1OzUsrTQoiv+v3+E6v9GRxEqKnU6kmi0Xj5fjdLPUkvLk9HcOrKLEZvBpFhT/JYg+D9ug8duw96VLP/f2D7l9fwVfMKcPNFoBDl2j6GbDaLhYUFzM/PI5VKlU+KALgM4DcGBwf/ixBCe9A/j4MINe/R+X17EmDfNif2bXPiZ3I7MX4zhMCNeVyYDPF+Nw+o02FAf7cdR3ao5TvdVnI6nXC73XC73VAUhQtGDy/yQyB6GnAcffw/K/zXwPRvAFqa6/oIVus+rFbry0899dQj7aXAQYRaQmVPkly8dJNKpYv3vjEs3e8mnMhi9EYQr1yewVSQPck9w8Vi9zHco2K7x1Q+DCph90FrSwK3/i2w898D5p2P9kfkF4Db/x6InuRyPuzqr9x9JAF8W6/Xv3jo0KGrj/t1+ExBLUURAnabFXabtWZP4q7Rk5y8MotoqnV7Er0i0LftPt3H4n1evF4vzGYzH2S0xofiMeDGrwDdXwTU4Yd4Fc0BoT8vXt7JL3AdH8IK3UdeCBGQUn7xQboPDiJED4A9yf0HtqXuQ4VJLxaPkJbWjt0HbegwMvEFwPkjQNtPAZY9K/+76ZtA5HvF3VLzYa7dA8rlcgiHwwgGg0gmyyHvI3cfHESIHtKD9iQfy+7E+YkQTl6ZweXpSNP1JJ1O4+JW6/d2H8X9PlR4PB52H7Q5It8r/s+4BbDuK94YTxiL74DJ3gVSV4Ec77r8wPPdYvcRDocRjUYr72j92N0HBxGix3C/nsRiXOpJSvuTvHJlBlMNvD+J06LDQLcdA9127PSZy4dBJew+qO5k7xb/Rw9to7oPDiJEa2B5TxKPJxFPJJfud9PAPUll97G/0wrdst1M2X0QNZf7dR9CiJcGBgb+ftOej/jjIVqdTqeD06nC6VQfuCcJ3JhHNq/VzfewWvchhIDH42H3QdQk7tN93JRS/rbf7//19eo+OIgQraNaPUk8kYSmadU9yTP10ZOUuo+jOx3wWKt/5dl9EDUXTdMQiUQQDAY3tfvgIEK0QWr1JMlkcadBs0Gp2p/kzLU5/PDSXcxE1n9DJatRwUC3HYd71Zrdh9lshtfrhc/nY/dB1ASi0eiK3YfRaPxiX1/f5Xr9u/MZiGgNrNaTuG1GvPfQNrz30LZ160mquo8tVuiUe7sPl8sFn88Hi8XCHxpRg6vVfUgpC4qijCiK8nJ/f/93GuH74CBCtMYqe5JsNod4IolYLI58fu17kpXu88Lug6g5NUr3wUGEqE4YjQZ4jA/Sk+zA+YnwA/ckWxxGDHRXdx8V14LhdDrYfRA1iVW6jz8TQnzJ7/fPN+r3x0GEaIOUehKfz13eWn6pJ9HX7Ekq1eo+KlksFni9Xni9XhgMBi44UYOLx+MIBoMIhUIN131wECGqY6JGTxKLJ5DJZAEALutSTxKMFRuTHV4T/u2Hdtxznxcjuw+ippJKpcqXXrLZbOnDBSHEiJTyy36//2+b7XvmIEK0iZb3JLFYAtFYvHz047GbFu8QrFQNMqWdTlVV5SISNbhm7D44iBA1IKPRAK/XBY/HiVQ6g1gsjng8CUAs7vdR7D5cLhe7D6IGd5/uIySl/Gajdx8cRIgamBACVosZVosZqj2FO3fnoKoqnnjiCS4OUYMrdR/hcLi8MzMWuw9FUV4aGBh4o9XWhIMIERHROkqn0+X9Plql++AgQkREtIlK3Uc4HEY8XtxRXQjRMt0HB5ENI7kERERUfEWQshyd1uo+ALRM98FBZN0JLgEREUGTemThBQDMzMxUfioB4K/0ev1Lhw4dusqVWmUQSaczmJkNQrVbYbGYIQRfaImIiFY6GI3LHgQLAwhrB1GABQKAJmVBCHFa07RfGx4e/huu04MPIv8RwKfi8YQuHk9Ap9PBbrdCtdtgMhm5QkRERAAy8CFYGEBIG0BGehZHEmgAFiTwJ36//5PsPh5hEPH7/b8E4JdGR0c/LqX8TKFQOBCJxJRIJAaDQQ+73QbVboPBwKs4RETUWgqwYEHbj5A2iKi2C6VL81LKW0KI34vGYr/27LPPprlSjzGIlP7P4ODg1wF8PRAIWAH8ihDiH+dy+Z5wOIJwOAKz2QRVtcFus3IzJSIialoSekTlHgQLA1jQnoKEDsU3J4ioEOJbiUTic29/+9vvcKXWeBAp8fv9SQD/GsC/Hh8f79U07WUAP55OZ1zpdAbz82HYrBaoqo09CRERNY2k7EJQG0Co0I88bKUPZ6SUZwwGw0uHDh16hau0AYNIpf7+/gkAvwDgF0ZGRn4EwJcAvCOeSBriiSR0OgU2qxWqaoPZbOJqEhFRQ8lKF0LaIcwXhpGBr/RhCeAygN/w+/2/xVXaxEGk0tDQ0PcAfA8AlnoSrS8ai4toLM6ehIiIGsJq3QeA/33x6gDV0yBSqdSTXLt2zRGJRD4rpfz5XC7fxZ6EiIjqkYQOUbkXYa0P4UIfNOjB7qOBB5GS3bt3RwH8KoBfZU9CRET1plb3IRa7Dynly8PDQz/gKjXwIFKpsicJBALPSim/iKqepLg/id1mZU9CRETrJiudCGn9Vd2HEJCQxe5jkN1Hcw4ilfx+/wkAJ4DKnqTQF4nERHF/EgPsdiscqh16vY4/BSIieiwrdR8AZqSUfwiIl9h9tNAgUql2T5JjT9KChBCVN4EiInosEgIxbRdC0o9w4QA0GFDZfWQymRePHTt2myvV4oNISWVPMjIyslNRlK9KKZ9PpzMO9iRERPSglrqPQ8jDvjiVyKyEPC2l/PLw8ND3uUocRO5raGjoBoCfBYDR0dF3apr2BdToSXi/GyIiApa6j6A2jLS8t/vwDw2x++Ag8mgGBwe/C+C7UkolEAh8Qgjxz+u9J+HJGiKi9VeAGQvaU+w+OIhs1Iu70AD8LoDfDQQCTgCfWaknUe02XrohImpC9+s+APx9Pp///JEjR65xpTiIrCu/3x8BexIiopaRkh0IaYOYL/iXug8gKyW7Dw4im6yyJxkZGXkvgM8LIY6xJyEiamxL3ccQ0rINwLLug/t9cBCpw6HkrwH8dUVP8kuapj1V2ZOoqg0O1QadjvuTEBHVm9rdhwTYfXAQaST360lCoQWEQguwWsyw222w2628dENEtImqu4+noaF89joJ4Nv5fIHdBweRxlXZk5w8eXKX2Wz+ipTy+WQq7Uim0pibD7EnISLaBKXuI6j5kZPF7kMsdh9CiK8u7sJNHESax/Hjx69jsScJBALvl1J+FsDxeCKpZ09CRLT+stKJBXkA8wU/UnLr4kelBIrdx8Dg4H9ZPKtN1HyDSCW/3/+XAP5SSqkfHR39JIB/xp6EiGjtFaQJC/Lp6u5DSkAUuw+r1fryU089FedKUUsNIiVCiDyA3wLwWydOnHCpqvrpyp4kHI7AYjaxJyEiegirdR96g+HFQ4cOXeVKUcsPIpWeffbZBdynJ5kPhmGzWWC3WdmTEBHVUKv7AJAXQgSEEC8NDAz8PVeJOIg8gMqeZHx8/P35fP6zmqYdj8US+lgsAb1eD5vNwp6EiFpeDk6EtQMIakNIap2LH13qPgbZfRAHkcfT39+/vCf5VKFQeHJ5T6KqNujZkxBRCyh1H2GtD1HtSUh2H8RBZP1V9iSBQMAH4KtCiJ/I5XJt5Z7EYkahUOBiEVEzPgsCAPKw4WLuy9CWXiKiQohv6Q2Glw8ePHiT60QcRDaA3++fB/C/Afjfzpw506fT6b4G4MeSyZSl9O8kEikYDQb2JETU0BKyGyFtAKHCIQBAQRogpcwJgVc0Tfvq8PAw7/NCHEQ205EjRy4C+BAABAKBDwH4CoC+dDoj7tyd4/4kRNRwstKNoNaPkDZYvs8LICGEyOr1+i8dPHjw17lKxEGkDvn9/j8F8KcAMDo6+nEp5WcKhULfUk+ih91ug2q3wWDg8hJR/ah5nxd2H8RBpHENDg5+HcDXL1++rMbj8c8JIX42l8v3hMMRhMMRmM0mqKoNdpsViqJwwYhow3G/D+Ig0gKefPLJGBb3JxkfH+/VNO1lAD+eTmdc6XQG8/Nh3u+GiDbU/fb7kFJ+kfd5IQ4iTaq/v38CwC8A+IWxsbGjUspflVI+F08kDcX73SiwWa1QVRvMZhMXjIjWTOk+L9zvgziIEABgYGDgNID3AZU9idYXjcVFNBYv9yQO1Q69nvuTENHD434fxEGEHkipJ7l27ZojEol8tni/m3wXexIieljsPoiDCD2y3bt3R8GehIgeQe3uQ/I+L8RBhB5NZU8yOjr6Tk3TvgDgHUs9CfcnIWp197nPy00p5W/7/f5fZ/dBHETosQ0ODn4XwHeBlfYnMcBut7InIWoBGgyIaPsQ1AbZfRAHEdqUoaRGT5K7pydR7TZeuiFqGgLR+3QfRpPpi319fZe5TsRBhDZMZU8yMjKyU1GUr0opn0+nMw72JETNoVb3IaUsKIoYURTl5f7+/u9wlYiDCG26oaGhGwB+FgDYkxA1tnL3UfAjKbeWPszugziIUGMo9SRSSiUQCHxCCPHPl/ckqmqDQ7VBp6ufnkRKCQA8c0Mtqbr72AsJZXH2wIyU8s9yudwXjh07FuJKEQcRahiLR0y/C+B3A4GAE8BnSj1JKLSAUGiBPQnR5v6WIi57ECwMIKQN3Nt9GNl9EHEQaRJ+vz8C9iREdaHcfRQGkYMKgN0HEQeRFlLZkwQCgfdLKT8rhDjGnoRo/eTgQFjrQ7AwiKTctvhR7vdBxEGkxfn9/r8E8JdSSv3o6OgnAfwzTdOeqveehKgR1O4+AAAhKeU3hRBf8vv981wpIg4iLU8IkQfwWwB+68SJEy5VVT+9vCexWsyw222w2628dEO08m/TCt2HTAL4tqIoLw0MDLzBdSLiIEIrePbZZxew2JOcPHlyl9ls/oqU8vlkKu1IptKYmw+xJyFaJiU7Fi+9DCELV2n4KAghRqSUX/b7h/6Wq0TEQYQe0vHjx69jWU8C4Hg8kdSzJ6FWt9R9DCApuwAAgvt9EHEQofVRoyf5lKZpT7InoVayWvcBdh9EHERofdXoSV4E8HO5XK4zFFpAOByBxWxiT0LN9Kgvdx9hOYCCLJ/9ywghviuE+Ay7DyIOIrQJFnuSFwG8WKsnmQ+GYbNZYLdZ2ZNQw0nLDoS0PgQLfmThXvxoZffhZ/dBxEGE6kVlTzI+Pv7+fD7/WU3TjsdiCX0sloBer4fNZoFDtcNoNHDBqC7lpANh2Yew1oe41guA3QcRBxFqOP39/ff0JIVC4Z6eRFVt0LMnoU2mST0icj+7DyIOItRsKnuSU6dOeYxG41eklP8gl8u1lXsSixmqauNi0aaYyP8UwtqByvu8pKSU31EU5cXBwcFLXCGiTX4d4RLQejh37twhIcRXhRDvAmCp/FxHuxc2GyPXB5FMpnDn7hwcDgd2797NBXkAiUQCoVAI8/Pz0LTyFZY8gDOapv3a8PDw33CViDiIUAsZHR39sKZpnxdCDJUeczqdDuriu264PwkHkceVzWYRDAYRCoWQTqcrPxVVFOWl/v7+32T3QcRBhFqclFKMjY39Y03T/qUQYn/p8Wcw6GG326DabTAYeLWQg8iDKRQKWFhYQCgUQjQarfzUNID/ls1mv3rs2LEUV4qIgwjRPS5fvqzG4/HPCSF+VkrZU/q42WyCqtpgt1mhKAoHEQ4iy4dZxGIxhEIhhMPhyksvSQDfzufznz9y5Mg1/oYRcRAhemDj4+O9mqa9DODHpZQuABBC8H43HETKUqkUQqEQgsEgcrkcFh8jWU3TTgshvur3+0/wN4mIgwjRYxsZGfkRAF8SQrwDgAFA+X43dpsVZrOJg0iLyGazWFhYwPz8PFKp8hUWCeAygN8YHBz8L+w+iDiIEK2b0dHRj0spPwOgD+WexAC73QqHaode3/z7k7TaIHKf7mNGSvmHVqv15aeeeirO3w4iDiJEG+batWuOSCTyWSnlzwshukofb4WepBUGkdW6D71e/+KhQ4eu8jeBiIMI0aa7cOHCjnw+/zUp5fMAHEBz9yTNPIjU6j4A5IUQASHESwMDA3/PRzwRBxGiujU6OvpOTdO+UKsnUe22ptifpNkGkVwuh3A4jGAwiGQyWfowuw8iDiJEjUtKqQQCgU8IIf45mqwnaYZBpNR9hMNhRKNRSClLn2L3QUQcRKi5BAIBJ4DPrNSTqHZbQ126adRBhN0HEXEQoZY3MjKyU1GUrzZyT9Jog0it7kNKWVAUZYTdBxFxEKFWHkreC+DziqIck1I2TE/SCIPIfbqPm1LK3/b7/b/O7oOIOIgQoaon+SUhxFNSynJPoqo2OFQbdLr66UnqdRDRNA2RSATBYJDdBxFxECF6FCv1JFaLGfbFOwNv9qWbehtE4vF4+S63y7sPo9H4xb6+vst8ZBERBxGih3Ty5MldZrP5K/XWk9TDIHK/7kNRlJf7+/u/w0cQEXEQIVojgUDg/VLKzwohjgPQA5vXk2zWIMLug4g4iBBtMimlfnR09JMA/tlm9SQbOYis0n38mRDiS36/f56PDCLiIEK0wU6cOOFSVfXTlT2JEAIWs2lde5KNGETYfRARBxGiBlKrJ1EUBTabBXabdU17kvUaRFKpVPnSSzabLX24IIQYkVJ+2e/3/y1/0kTEQYSozo2Pj78/n8+vW0+yloNIre5DCCGllOw+iIiDCFEjq+hJPiWEeHJ5T6KqNugfoSd53EHkPt1HSEr5TXYfRMRBhKjJnDhxwmW3218WQnwMQMfimYdH6kkedRApdR/hcBiFQqH04YwQ4rtCiM8MDAy8wZ8UEXEQIWpyp06desJkMn25Zk9it8FqMa/ZIJJOp8v7fbD7ICIOIkRUZXR09IOapn26sifR6/Ww2SxwqHYYjYaHHkRK3Uc4HEY8XtxRnd0HEXEQIaIVPUxPUmsQYfdBRBxEiGhNrNaTCEVgZmYeDocDnZ2dK3Yf6XT6c8ePH3+NK0pEHESI6JGMj48f0jTta5qmvUsIYS4NJVLK8j8X5QGc0TTt14aHh/+GK0dEHESIaE2NjIx8BMDnhRCDAJTF7uOaoii/0d/f/5vsPoiIiGjdfeMb3zAGAoEfO3HihIurQUTN6P8FzLcWpVx7TuAAAAAldEVYdGRhdGU6Y3JlYXRlADIwMjQtMTItMTdUMTc6MzI6NDArMDA6MDDCkKSbAAAAJXRFWHRkYXRlOm1vZGlmeQAyMDI0LTEyLTE3VDE3OjMyOjQwKzAwOjAws80cJwAAAABJRU5ErkJggg==;" parent="1" vertex="1">
          <mxGeometry x="1330" y="1481.39" width="82.89" height="73.17" as="geometry" />
        </mxCell>
        <mxCell id="mhfjtfYsQsaltl2Lk63X-41" value="pykakasi" style="rounded=1;whiteSpace=wrap;html=1;fontSize=15;" parent="1" vertex="1">
          <mxGeometry x="1240" y="1577" width="120" height="60" as="geometry" />
        </mxCell>
        <mxCell id="mhfjtfYsQsaltl2Lk63X-42" value="deep-translator" style="rounded=1;whiteSpace=wrap;html=1;fontSize=15;" parent="1" vertex="1">
          <mxGeometry x="1240" y="1695.5" width="120" height="60" as="geometry" />
        </mxCell>
        <mxCell id="mhfjtfYsQsaltl2Lk63X-43" value="pyperclip" style="rounded=1;whiteSpace=wrap;html=1;fontSize=15;" parent="1" vertex="1">
          <mxGeometry x="1245" y="1817" width="120" height="60" as="geometry" />
        </mxCell>
        <mxCell id="mhfjtfYsQsaltl2Lk63X-45" value="PYPI" style="text;fontColor=default;fontSize=25;fontStyle=1" parent="1" vertex="1">
          <mxGeometry x="1220" y="1494.78" width="80" height="52.22" as="geometry" />
        </mxCell>
        <mxCell id="mhfjtfYsQsaltl2Lk63X-46" value="furigana generator" style="text;html=1;align=center;verticalAlign=middle;whiteSpace=wrap;rounded=0;" parent="1" vertex="1">
          <mxGeometry x="1220" y="1637" width="160" height="30" as="geometry" />
        </mxCell>
        <mxCell id="mhfjtfYsQsaltl2Lk63X-47" value="translation generator" style="text;html=1;align=center;verticalAlign=middle;whiteSpace=wrap;rounded=0;" parent="1" vertex="1">
          <mxGeometry x="1220" y="1755.5" width="160" height="30" as="geometry" />
        </mxCell>
        <mxCell id="mhfjtfYsQsaltl2Lk63X-48" value="Clipboard (clipx) integrator" style="text;html=1;align=center;verticalAlign=middle;whiteSpace=wrap;rounded=0;" parent="1" vertex="1">
          <mxGeometry x="1225" y="1877" width="160" height="30" as="geometry" />
        </mxCell>
        <mxCell id="Tsv0JuC0weB6gannDavI-10" style="edgeStyle=orthogonalEdgeStyle;rounded=0;orthogonalLoop=1;jettySize=auto;html=1;entryX=1;entryY=0.5;entryDx=0;entryDy=0;" edge="1" parent="1" source="Tsv0JuC0weB6gannDavI-1" target="mhfjtfYsQsaltl2Lk63X-58">
          <mxGeometry relative="1" as="geometry">
            <mxPoint x="685" y="1690" as="targetPoint" />
            <Array as="points">
              <mxPoint x="720" y="2106" />
              <mxPoint x="720" y="1880" />
            </Array>
          </mxGeometry>
        </mxCell>
        <mxCell id="Tsv0JuC0weB6gannDavI-1" value="RegexEngine" style="swimlane;fontStyle=1;align=center;verticalAlign=top;childLayout=stackLayout;horizontal=1;startSize=26;horizontalStack=0;resizeParent=1;resizeParentMax=0;resizeLast=0;collapsible=1;marginBottom=0;whiteSpace=wrap;html=1;fontSize=16;spacing=0;" vertex="1" parent="1">
          <mxGeometry x="807.5" y="2060" width="260" height="60" as="geometry" />
        </mxCell>
        <mxCell id="Tsv0JuC0weB6gannDavI-4" value="" style="line;strokeWidth=1;fillColor=none;align=left;verticalAlign=middle;spacingTop=-1;spacingLeft=3;spacingRight=3;rotatable=0;labelPosition=right;points=[];portConstraint=eastwest;strokeColor=inherit;" vertex="1" parent="Tsv0JuC0weB6gannDavI-1">
          <mxGeometry y="26" width="260" height="8" as="geometry" />
        </mxCell>
        <mxCell id="Tsv0JuC0weB6gannDavI-5" value="+ remove_whitespace_specialchar(str): str" style="text;strokeColor=none;fillColor=none;align=left;verticalAlign=top;spacingLeft=4;spacingRight=4;overflow=hidden;rotatable=0;points=[[0,0.5],[1,0.5]];portConstraint=eastwest;whiteSpace=wrap;html=1;fontSize=14;" vertex="1" parent="Tsv0JuC0weB6gannDavI-1">
          <mxGeometry y="34" width="260" height="26" as="geometry" />
        </mxCell>
      </root>
    </mxGraphModel>
  </diagram>
</mxfile>
